<svg width="554" height="530" viewBox="0 0 554 530" fill="none" xmlns="http://www.w3.org/2000/svg">
<path d="M81.1296 256.511C-27.0491 318.961 -27.0374 420.231 81.1296 482.681C189.297 545.132 364.692 545.132 472.87 482.681C581.049 420.231 581.037 318.961 472.87 256.511C364.703 194.06 189.308 194.06 81.1296 256.511Z" fill="#F5F5F5"/>
<path d="M127.231 460.233L134.327 456.134L92.8145 452.281L99.501 476.241L106.597 472.154L193.768 522.156C211.142 525.287 228.681 527.414 246.3 528.526L127.231 460.233Z" fill="#EBEBEB"/>
<path d="M247.472 286.524L522.193 444.108C526.877 438.961 531.182 433.482 535.074 427.713L268.106 274.673L275.202 270.575L233.678 266.663L240.364 290.622L247.472 286.524Z" fill="#EBEBEB"/>
<path d="M83.0136 372.816L41.5127 368.952L48.1875 392.946L55.2839 388.847L299.687 528.971C311.784 528.409 323.822 527.39 335.731 525.903L75.9172 376.915L83.0136 372.816Z" fill="#EBEBEB"/>
<path d="M510.037 349.958L517.063 345.871L475.562 342.007L482.284 366.012L489.369 361.914L550.028 396.705C552.118 389.685 553.391 382.447 553.822 375.135L510.037 349.958Z" fill="#EBEBEB"/>
<path d="M503.982 461.298L420.383 413.345L427.468 409.246L385.967 405.394L392.653 429.353L399.738 425.266L485.843 474.648C492.12 470.52 498.174 466.064 503.982 461.298Z" fill="#EBEBEB"/>
<path d="M432.938 326.948C432.938 326.948 428.804 292.344 442.657 259.345C450.398 240.901 463.138 232.809 470.762 232.411C479.263 231.908 487.425 240.339 479.31 252.319C471.593 263.736 457.576 267.823 447.974 298.117C441.65 318.095 441.802 331.515 441.802 331.515L432.938 326.948Z" fill="#34A573"/>
<path opacity="0.5" d="M432.938 326.948C432.938 326.948 428.804 292.344 442.657 259.345C450.398 240.901 463.138 232.809 470.762 232.411C479.263 231.908 487.425 240.339 479.31 252.319C471.593 263.736 457.576 267.823 447.974 298.117C441.65 318.095 441.802 331.515 441.802 331.515L432.938 326.948Z" fill="white"/>
<path d="M438.606 318.528C438.676 318.527 438.745 318.511 438.808 318.482C438.872 318.453 438.929 318.412 438.976 318.361C439.023 318.309 439.059 318.249 439.082 318.183C439.105 318.117 439.114 318.047 439.11 317.978C437.318 280.236 456.968 249.742 471.488 240.128C471.547 240.092 471.598 240.043 471.637 239.986C471.677 239.93 471.704 239.865 471.719 239.798C471.733 239.73 471.733 239.66 471.72 239.592C471.706 239.524 471.679 239.46 471.641 239.402C471.603 239.343 471.553 239.292 471.495 239.253C471.438 239.213 471.372 239.185 471.304 239.171C471.235 239.157 471.164 239.157 471.095 239.17C471.026 239.184 470.961 239.211 470.903 239.25C456.171 248.993 436.264 279.873 438.067 318.001C438.067 318.071 438.081 318.141 438.109 318.205C438.136 318.27 438.176 318.329 438.226 318.378C438.276 318.427 438.336 318.466 438.401 318.491C438.466 318.517 438.536 318.53 438.606 318.528Z" fill="white"/>
<path d="M441.767 331.503C443.453 322.931 448.676 314.312 459.391 305.424C470.105 296.536 484.614 288.667 482.998 280.201C481.382 271.734 470.117 272.858 462.084 277.027C454.051 281.196 435.502 298.433 437.352 329.231L441.767 331.503Z" fill="#34A573"/>
<path opacity="0.65" d="M441.767 331.503C443.453 322.931 448.676 314.312 459.391 305.424C470.105 296.536 484.614 288.667 482.998 280.201C481.382 271.734 470.117 272.858 462.084 277.027C454.051 281.196 435.502 298.433 437.352 329.231L441.767 331.503Z" fill="white"/>
<path d="M440.128 321.737C440.252 321.73 440.37 321.681 440.461 321.598C440.553 321.515 440.613 321.402 440.632 321.28C443.056 303.106 465.317 281.383 475.224 278.421C475.358 278.378 475.47 278.284 475.536 278.159C475.602 278.034 475.616 277.888 475.575 277.753C475.535 277.62 475.443 277.508 475.32 277.442C475.197 277.376 475.053 277.362 474.919 277.402C464.532 280.517 442.131 302.251 439.578 321.139C439.561 321.279 439.6 321.419 439.685 321.531C439.77 321.642 439.896 321.716 440.035 321.737H440.128Z" fill="white"/>
<path d="M418.992 352.382C409.796 355.746 401.047 360.221 392.937 365.708C383.803 371.879 375.453 379.327 365.722 384.444C353.064 391.096 338.52 393.508 324.268 392.829C316.2 392.442 307.429 390.674 302.241 384.316C301.06 382.65 300.497 380.625 300.649 378.589C300.635 377.104 300.932 375.633 301.521 374.27C302.11 372.906 302.978 371.681 304.068 370.673C315.778 359.268 332.173 354.572 347.888 350.895C363.603 347.218 373.1 342.592 388.569 334.395C395.197 330.882 401.719 327.064 408.394 323.727L408.546 323.645C419.261 318.317 429.203 311.361 441.335 317.685C447.307 320.788 450.633 326.713 447.822 333.189C442.963 344.442 429.554 348.541 418.992 352.382Z" fill="#E0E0E0"/>
<path d="M168.733 324.582L101.353 363.483L189.308 414.364L189.624 414.165L192.071 412.76C192.868 412.28 193.629 411.835 194.413 411.401C206.124 404.609 214.403 399.609 213.759 395.803C213.302 392.911 208.067 391.272 203.746 390.756C201.407 390.564 199.131 389.894 197.06 388.789C196.283 388.436 195.617 387.878 195.134 387.174C194.651 386.47 194.369 385.648 194.32 384.796C194.32 383.004 195.631 381.142 198.172 379.667C202.856 376.962 209.883 376.681 213.993 379.023C215.531 379.878 216.72 381.245 217.354 382.887C218.088 384.601 219.309 386.063 220.866 387.089C222.424 388.115 224.248 388.662 226.113 388.66C233.045 389.047 240.797 384.573 253.562 377.161L256.606 375.404L168.733 324.582ZM335.826 421.144C333.062 422.725 330.392 424.224 327.769 425.653C320.263 429.821 314.255 433.171 311.621 435.969C311.158 436.357 310.79 436.846 310.547 437.398C310.303 437.95 310.19 438.551 310.215 439.154C310.684 442.035 315.918 443.686 320.239 444.202C322.578 444.383 324.854 445.045 326.926 446.145C327.578 446.509 328.164 446.98 328.659 447.539C329.303 448.262 329.664 449.194 329.678 450.162C329.678 451.942 328.343 453.816 325.79 455.268C321.106 457.984 314.08 458.254 309.993 455.923C308.454 455.072 307.261 453.709 306.62 452.071C305.707 449.565 302.873 446.544 297.849 446.274C291.994 445.935 285.964 449.6 276.771 455.162L273.059 457.352C271.607 458.219 270.108 459.12 268.504 460.057L372.115 519.779C374.352 519.299 376.565 518.819 378.779 518.315C405.875 512.323 432.173 503.165 457.131 491.031L335.826 421.144Z" fill="#E0E0E0"/>
<path d="M91.6675 164.106L85.9997 163.263C85.6354 163.178 85.3001 162.998 85.0285 162.74C84.7568 162.483 84.5586 162.158 84.454 161.799C84.1819 160.789 83.8295 159.802 83.4001 158.848C83.3063 158.389 83.3312 157.913 83.4727 157.467C83.6141 157.02 83.8672 156.617 84.2081 156.295L87.0888 153.133C87.8265 152.325 88.0841 151.295 87.6626 150.791L83.283 146.049C82.8497 145.58 81.8192 145.686 80.9409 146.283L77.2171 148.929C76.8701 149.208 76.4605 149.397 76.0237 149.48C75.5869 149.564 75.1363 149.54 74.7111 149.41C73.7203 148.855 72.6864 148.381 71.6196 147.993C71.2813 147.824 70.9944 147.568 70.7885 147.25C70.5826 146.933 70.4652 146.567 70.4486 146.189L70.191 140.99C70.1817 140.618 70.0377 140.262 69.7857 139.989C69.5336 139.715 69.1908 139.542 68.8209 139.503L62.4974 139.245C62.0936 139.283 61.715 139.458 61.425 139.742C61.1351 140.025 60.9514 140.4 60.9048 140.803L60.0734 145.58C59.9792 146.032 59.7687 146.451 59.4626 146.796C59.1565 147.141 58.7656 147.4 58.3286 147.548C57.4844 147.791 56.6555 148.084 55.846 148.426C55.4837 148.612 55.0823 148.709 54.675 148.709C54.2677 148.709 53.8663 148.612 53.504 148.426L49.0892 144.608C48.6208 144.187 47.5786 144.433 46.7472 145.147L42.9531 148.496C42.1568 149.21 41.7821 150.194 42.1919 150.721L45.5879 155.405C45.7475 155.833 45.8011 156.293 45.7439 156.745C45.6868 157.198 45.5208 157.63 45.26 158.005C44.9321 158.579 44.6511 159.176 44.3817 159.773C44.2185 160.214 43.9494 160.608 43.5982 160.92C43.247 161.233 42.8244 161.454 42.3676 161.565L36.8404 161.928C36.4474 161.987 36.0868 162.18 35.82 162.474C35.5532 162.769 35.3965 163.147 35.3766 163.544L35.0253 169.235C34.9768 169.614 35.0693 169.998 35.2852 170.313C35.5011 170.628 35.8254 170.853 36.1963 170.945L41.8758 171.788C42.2398 171.869 42.5752 172.047 42.8471 172.302C43.119 172.558 43.3174 172.882 43.4215 173.24C43.6936 174.25 44.046 175.237 44.4754 176.191C44.5692 176.65 44.5442 177.125 44.4028 177.572C44.2614 178.019 44.0083 178.422 43.6674 178.744L40.7867 181.905C40.0373 182.713 39.7914 183.744 40.2129 184.247L44.5925 189.002C45.0258 189.458 46.0446 189.353 46.9346 188.756L50.6584 186.121C51.001 185.839 51.4082 185.647 51.8435 185.561C52.2789 185.475 52.7287 185.498 53.1527 185.629C54.1451 186.188 55.1833 186.662 56.2559 187.046C56.5958 187.216 56.8839 187.474 57.0899 187.793C57.296 188.113 57.4123 188.481 57.4269 188.861L57.6845 194.06C57.6941 194.431 57.8385 194.785 58.0908 195.057C58.343 195.329 58.6857 195.499 59.0546 195.536L65.3781 195.794C65.7804 195.76 66.1584 195.588 66.447 195.306C66.7357 195.023 66.9167 194.649 66.959 194.248L67.8021 189.458C67.8974 189.007 68.1083 188.589 68.4142 188.244C68.7201 187.899 69.1105 187.64 69.5469 187.491C70.3904 187.246 71.2193 186.952 72.0295 186.613C72.3926 186.43 72.7937 186.334 73.2005 186.334C73.6073 186.334 74.0084 186.43 74.3715 186.613L78.7746 190.36C79.2547 190.77 80.2852 190.524 81.1166 189.821L84.9107 186.461C85.707 185.758 86.0817 184.763 85.6718 184.247L82.2759 179.563C82.1163 179.134 82.0627 178.672 82.1198 178.217C82.1769 177.763 82.3429 177.329 82.6038 176.952C82.92 176.378 83.2127 175.781 83.482 175.184C83.6433 174.743 83.9119 174.349 84.2636 174.038C84.6153 173.728 85.0389 173.51 85.4962 173.404L91.0234 173.029C91.4174 172.972 91.7791 172.78 92.0463 172.485C92.3135 172.19 92.4694 171.811 92.4872 171.413L92.8385 165.722C92.8634 165.358 92.7598 164.997 92.5458 164.702C92.3318 164.406 92.021 164.195 91.6675 164.106ZM76.3271 167.994C76.075 171.263 74.5602 174.307 72.1035 176.479C69.6468 178.652 66.441 179.783 63.1649 179.634C61.5632 179.592 59.9862 179.23 58.5273 178.567C57.0684 177.905 55.7573 176.957 54.6718 175.778C53.5863 174.6 52.7484 173.216 52.2078 171.708C51.6673 170.199 51.4351 168.598 51.525 166.998C51.7771 163.728 53.2919 160.685 55.7486 158.512C58.2053 156.34 61.4111 155.209 64.6872 155.358C66.2888 155.4 67.8659 155.762 69.3248 156.424C70.7837 157.087 72.0947 158.035 73.1803 159.213C74.2658 160.392 75.1037 161.776 75.6442 163.284C76.1848 164.793 76.417 166.394 76.3271 167.994Z" fill="#F0F0F0"/>
<path d="M44.4517 198.171L41.77 201.286C41.5793 201.473 41.3422 201.607 41.083 201.672C40.8237 201.738 40.5517 201.734 40.2946 201.66C39.5746 201.44 38.8385 201.275 38.0931 201.169C37.7906 201.039 37.5252 200.837 37.3207 200.579C37.1163 200.321 36.9792 200.017 36.922 199.693L36.114 196.742C35.9032 195.981 35.3763 195.431 34.943 195.571L30.376 196.402C29.9311 196.484 29.6032 197.14 29.6383 197.878L29.814 201.145C29.8535 201.462 29.8144 201.784 29.7 202.082C29.5856 202.38 29.3995 202.646 29.1582 202.855C28.4368 203.234 27.7509 203.676 27.1089 204.178C26.8738 204.319 26.6046 204.394 26.3302 204.394C26.0558 204.394 25.7866 204.319 25.5514 204.178L22.296 202.34C22.0665 202.201 21.7938 202.151 21.5302 202.201C21.2665 202.251 21.0305 202.396 20.8674 202.609L18.2092 206.309C18.0772 206.567 18.0377 206.863 18.0974 207.146C18.1571 207.43 18.3123 207.684 18.537 207.867L21.1133 210.209C21.3511 210.44 21.5248 210.728 21.6172 211.047C21.7096 211.365 21.7175 211.702 21.6402 212.024C21.4665 212.629 21.3257 213.242 21.2187 213.862C21.1907 214.16 21.0908 214.447 20.9276 214.698C20.7644 214.949 20.5429 215.156 20.2819 215.303L16.277 216.474C15.8437 216.603 15.5861 217.317 15.7149 218.078L16.2887 221.661C16.4058 222.422 16.8859 223.02 17.3426 222.985L21.4646 222.704C21.9213 222.704 22.5419 223.23 22.9049 223.875C23.1391 224.296 23.3851 224.694 23.6427 225.046C23.8505 225.314 23.9881 225.631 24.0433 225.966C24.0985 226.301 24.0695 226.645 23.9589 226.966L22.0618 230.479C21.9351 230.736 21.9068 231.03 21.9823 231.306C22.0578 231.583 22.2319 231.821 22.4717 231.978L25.7857 234.379C25.9943 234.548 26.2547 234.64 26.5234 234.64C26.792 234.64 27.0525 234.548 27.2611 234.379L29.9193 231.346C30.1101 231.158 30.3472 231.025 30.6064 230.959C30.8657 230.893 31.1377 230.897 31.3948 230.971C32.1148 231.192 32.8509 231.356 33.5963 231.463C33.8979 231.59 34.1629 231.791 34.3674 232.046C34.5719 232.302 34.7094 232.604 34.7674 232.927L35.5754 235.889C35.7861 236.65 36.3131 237.201 36.7464 237.06L41.3134 236.229C41.7583 236.147 42.0862 235.491 42.0511 234.753L41.8754 231.474C41.8382 231.158 41.8797 230.838 41.9961 230.542C42.1126 230.246 42.3004 229.983 42.5429 229.776C43.2567 229.387 43.9381 228.94 44.5805 228.442C44.8165 228.303 45.0853 228.229 45.3592 228.229C45.6331 228.229 45.902 228.303 46.1379 228.442L49.3934 230.28C49.6229 230.419 49.8956 230.468 50.1592 230.419C50.4229 230.369 50.6589 230.224 50.822 230.011L53.3983 226.275C53.5281 226.017 53.5664 225.722 53.5068 225.439C53.4472 225.156 53.2934 224.902 53.0704 224.718L50.4941 222.376C50.2553 222.146 50.081 221.857 49.9885 221.538C49.8961 221.22 49.8887 220.883 49.9672 220.561C50.1422 219.96 50.283 219.35 50.3887 218.734C50.4158 218.436 50.5153 218.148 50.6785 217.897C50.8418 217.646 51.0639 217.439 51.3256 217.293L55.3421 216.122C55.7637 215.994 56.0213 215.268 55.8925 214.518L55.3187 210.935C55.2016 210.174 54.7332 209.576 54.2648 209.612L50.1545 209.893C49.6861 209.893 49.0655 209.366 48.7025 208.722C48.48 208.312 48.2341 207.914 47.9647 207.551C47.7598 207.283 47.6239 206.968 47.5687 206.636C47.5136 206.303 47.541 205.962 47.6486 205.642L49.5573 202.129C49.683 201.871 49.7095 201.575 49.6317 201.299C49.554 201.023 49.3775 200.785 49.1358 200.63L45.8218 198.229C45.6285 198.077 45.3922 197.989 45.1462 197.978C44.9002 197.968 44.6572 198.035 44.4517 198.171ZM40.9386 208.967C42.822 210.375 44.0841 212.459 44.4578 214.78C44.8315 217.101 44.2876 219.477 42.9411 221.404C42.3021 222.36 41.4773 223.179 40.5158 223.81C39.5543 224.442 38.4757 224.874 37.344 225.08C36.2123 225.286 35.0507 225.263 33.9281 225.012C32.8055 224.761 31.7449 224.286 30.8093 223.617C28.9159 222.216 27.6419 220.134 27.2572 217.81C26.8725 215.487 27.4073 213.105 28.7483 211.169C29.3883 210.207 30.216 209.383 31.1818 208.749C32.1476 208.114 33.2316 207.681 34.3689 207.475C35.5062 207.27 36.6732 207.296 37.8001 207.552C38.927 207.809 39.9906 208.29 40.9269 208.967H40.9386Z" fill="#F0F0F0"/>
<path d="M433.055 165.769L433.406 171.46C433.419 171.859 433.573 172.24 433.841 172.536C434.109 172.832 434.474 173.023 434.87 173.076L440.397 173.451C440.853 173.558 441.276 173.777 441.627 174.088C441.979 174.398 442.248 174.791 442.411 175.23C442.669 175.834 442.958 176.425 443.278 176.999C443.537 177.376 443.703 177.81 443.762 178.264C443.821 178.717 443.771 179.179 443.617 179.61L440.209 184.294C439.835 184.809 440.209 185.805 440.982 186.507L444.776 189.868C445.573 190.571 446.615 190.817 447.118 190.407L451.533 186.578C451.896 186.394 452.297 186.299 452.704 186.299C453.111 186.299 453.512 186.394 453.875 186.578C454.681 186.919 455.506 187.212 456.346 187.456C456.783 187.604 457.173 187.864 457.479 188.209C457.785 188.554 457.996 188.972 458.091 189.423L458.934 194.213C458.978 194.613 459.16 194.986 459.448 195.268C459.737 195.55 460.113 195.723 460.515 195.758L466.838 195.501C467.208 195.464 467.553 195.294 467.807 195.023C468.061 194.751 468.208 194.397 468.22 194.025L468.478 188.826C468.492 188.446 468.609 188.077 468.815 187.758C469.021 187.439 469.309 187.181 469.649 187.011C470.717 186.625 471.751 186.151 472.74 185.594C473.166 185.463 473.618 185.44 474.055 185.526C474.492 185.611 474.901 185.804 475.246 186.086L478.958 188.721C479.802 189.318 480.832 189.423 481.3 188.967L485.68 184.212C486.113 183.744 485.856 182.713 485.118 181.87L482.237 178.708C481.896 178.387 481.643 177.984 481.502 177.537C481.36 177.09 481.335 176.615 481.429 176.156C481.854 175.2 482.206 174.213 482.483 173.205C482.585 172.847 482.782 172.524 483.051 172.269C483.321 172.013 483.655 171.835 484.017 171.753L489.697 170.909C490.065 170.813 490.386 170.587 490.601 170.273C490.817 169.959 490.911 169.578 490.868 169.2L490.505 163.509C490.489 163.11 490.334 162.73 490.066 162.435C489.799 162.139 489.436 161.947 489.041 161.893L483.525 161.53C483.066 161.421 482.641 161.201 482.287 160.889C481.934 160.576 481.663 160.181 481.5 159.738C481.242 159.141 480.949 158.567 480.633 157.97C480.374 157.594 480.208 157.163 480.149 156.711C480.09 156.259 480.139 155.799 480.293 155.37L483.701 150.686C484.076 150.159 483.701 149.175 482.928 148.461L479.146 145.112C478.338 144.398 477.307 144.152 476.804 144.573L472.389 148.391C472.027 148.577 471.625 148.674 471.218 148.674C470.811 148.674 470.409 148.577 470.047 148.391C469.242 148.049 468.416 147.756 467.576 147.512C467.139 147.365 466.748 147.106 466.442 146.761C466.136 146.416 465.926 145.997 465.831 145.545L464.988 140.767C464.944 140.366 464.763 139.991 464.475 139.707C464.187 139.424 463.81 139.248 463.407 139.21L457.084 139.468C456.713 139.505 456.369 139.677 456.116 139.951C455.864 140.225 455.72 140.582 455.714 140.955L455.456 146.154C455.438 146.532 455.32 146.897 455.115 147.214C454.909 147.531 454.623 147.788 454.285 147.957C453.219 148.348 452.186 148.822 451.194 149.374C450.77 149.505 450.321 149.529 449.887 149.445C449.452 149.362 449.044 149.172 448.699 148.894L444.975 146.248C444.132 145.651 443.102 145.545 442.633 146.014L438.254 150.756C437.821 151.225 438.078 152.255 438.816 153.098L441.697 156.26C442.039 156.581 442.293 156.984 442.437 157.43C442.58 157.877 442.608 158.353 442.516 158.813C442.083 159.767 441.727 160.753 441.451 161.764C441.347 162.122 441.151 162.445 440.881 162.703C440.612 162.96 440.279 163.141 439.917 163.228L434.237 164.071C433.865 164.157 433.538 164.379 433.32 164.693C433.101 165.006 433.007 165.389 433.055 165.769ZM461.159 155.323C464.434 155.176 467.639 156.309 470.095 158.481C472.551 160.653 474.066 163.694 474.321 166.963C474.411 168.564 474.179 170.166 473.637 171.675C473.096 173.184 472.257 174.569 471.17 175.747C470.083 176.926 468.771 177.874 467.311 178.536C465.85 179.197 464.272 179.559 462.67 179.598C459.393 179.748 456.188 178.617 453.731 176.444C451.274 174.272 449.759 171.228 449.507 167.958C449.424 166.359 449.662 164.759 450.207 163.254C450.753 161.748 451.595 160.367 452.683 159.192C453.772 158.018 455.085 157.073 456.545 156.414C458.004 155.756 459.581 155.397 461.182 155.358L461.159 155.323Z" fill="#F0F0F0"/>
<path d="M494.253 181.788L490.939 184.13C490.697 184.285 490.52 184.523 490.443 184.799C490.365 185.076 490.391 185.371 490.517 185.629L492.414 189.142C492.524 189.461 492.554 189.802 492.501 190.135C492.448 190.468 492.314 190.782 492.11 191.051C491.84 191.449 491.594 191.847 491.372 192.222C490.997 192.901 490.377 193.463 489.92 193.393L485.798 193.112C485.341 193.112 484.873 193.674 484.756 194.435L484.17 198.018C484.053 198.78 484.299 199.494 484.732 199.623L488.749 200.794C489.008 200.942 489.228 201.151 489.391 201.401C489.554 201.651 489.655 201.937 489.686 202.234C489.782 202.856 489.922 203.471 490.107 204.073C490.182 204.395 490.173 204.731 490.081 205.049C489.989 205.367 489.816 205.656 489.58 205.888L487.004 208.23C486.776 208.41 486.618 208.664 486.558 208.949C486.498 209.234 486.54 209.53 486.676 209.787L489.252 213.511C489.416 213.724 489.652 213.869 489.915 213.919C490.179 213.969 490.452 213.919 490.681 213.78L493.925 211.942C494.16 211.8 494.429 211.726 494.704 211.726C494.978 211.726 495.247 211.8 495.482 211.942C496.129 212.437 496.814 212.88 497.532 213.265C497.773 213.475 497.959 213.74 498.075 214.038C498.192 214.336 498.234 214.657 498.199 214.975L498.023 218.242C498.023 218.98 498.316 219.635 498.761 219.717L503.316 220.549C503.761 220.631 504.3 220.08 504.487 219.319L505.295 216.368C505.385 216.071 505.542 215.798 505.756 215.573C505.969 215.347 506.233 215.174 506.525 215.069C507.267 214.963 507.999 214.799 508.715 214.577C508.972 214.502 509.244 214.497 509.504 214.563C509.763 214.629 510 214.763 510.19 214.951L512.884 218.066C513.092 218.236 513.353 218.328 513.621 218.328C513.89 218.328 514.15 218.236 514.359 218.066L517.673 215.666C517.913 215.509 518.087 215.27 518.162 214.994C518.238 214.718 518.21 214.424 518.083 214.167L516.186 210.654C516.076 210.335 516.046 209.994 516.099 209.661C516.152 209.328 516.286 209.014 516.49 208.745C516.76 208.347 517.006 207.949 517.228 207.574C517.603 206.895 518.223 206.333 518.68 206.403L522.802 206.684C523.259 206.684 523.727 206.122 523.856 205.361L524.43 201.777C524.547 201.028 524.301 200.302 523.868 200.173L519.851 199.002C519.591 198.856 519.371 198.648 519.209 198.397C519.048 198.146 518.951 197.859 518.926 197.562C518.819 196.942 518.678 196.328 518.504 195.723C518.424 195.404 518.43 195.069 518.52 194.752C518.611 194.436 518.783 194.149 519.02 193.92L521.596 191.578C521.824 191.4 521.982 191.148 522.044 190.866C522.106 190.584 522.068 190.289 521.936 190.032L519.406 186.238C519.243 186.025 519.007 185.88 518.743 185.83C518.48 185.78 518.207 185.83 517.978 185.969L514.722 187.807C514.486 187.946 514.217 188.02 513.943 188.02C513.669 188.02 513.401 187.946 513.165 187.807C512.518 187.308 511.833 186.862 511.115 186.472C510.874 186.265 510.688 186.002 510.571 185.706C510.455 185.41 510.413 185.09 510.448 184.774L510.624 181.495C510.624 180.758 510.331 180.102 509.886 180.02L505.331 179.189C504.886 179.107 504.359 179.657 504.16 180.418L503.352 183.381C503.285 183.71 503.136 184.016 502.919 184.272C502.702 184.528 502.424 184.725 502.11 184.845C501.369 184.951 500.636 185.116 499.92 185.336C499.663 185.41 499.391 185.414 499.132 185.348C498.873 185.283 498.636 185.149 498.445 184.962L495.752 181.847C495.548 181.663 495.287 181.557 495.013 181.546C494.739 181.535 494.47 181.621 494.253 181.788ZM511.373 194.833C512.724 196.758 513.271 199.133 512.9 201.455C512.528 203.777 511.266 205.863 509.382 207.27C508.447 207.939 507.387 208.415 506.265 208.667C505.143 208.919 503.982 208.943 502.85 208.738C501.719 208.532 500.64 208.102 499.678 207.471C498.716 206.841 497.89 206.024 497.25 205.068C495.9 203.14 495.354 200.762 495.728 198.438C496.102 196.114 497.366 194.027 499.253 192.62C500.188 191.951 501.247 191.477 502.369 191.226C503.491 190.974 504.651 190.951 505.782 191.158C506.913 191.364 507.99 191.796 508.951 192.428C509.911 193.059 510.735 193.877 511.373 194.833Z" fill="#F0F0F0"/>
<path d="M101.354 358.155L189.32 409.036L189.637 408.837L192.096 407.432L194.438 406.073C206.148 399.293 214.427 394.293 213.795 390.475C213.326 387.583 208.092 385.944 203.771 385.428C201.432 385.241 199.156 384.575 197.084 383.473C196.305 383.119 195.638 382.559 195.155 381.853C194.672 381.147 194.392 380.322 194.344 379.468C194.344 377.688 195.656 375.814 198.197 374.339C202.881 371.645 209.907 371.353 214.005 373.707C215.553 374.551 216.751 375.916 217.39 377.559C218.291 380.065 221.137 383.086 226.149 383.344C233.07 383.719 240.822 379.245 253.598 371.845L256.631 370.088L168.804 319.254L101.354 358.155ZM335.827 415.828C333.063 417.397 330.393 418.884 327.77 420.336C317.231 426.192 309.643 430.384 310.205 433.838C310.396 434.697 310.896 435.456 311.61 435.97C313.554 437.55 317.114 438.511 320.229 438.874C322.566 439.061 324.841 439.723 326.915 440.818C327.694 441.179 328.361 441.744 328.845 442.453C329.33 443.162 329.614 443.989 329.667 444.846C329.624 445.83 329.267 446.774 328.648 447.539C327.86 448.524 326.885 449.344 325.779 449.951C321.095 452.657 314.069 452.926 309.982 450.596C308.441 449.747 307.247 448.383 306.61 446.743C305.696 444.237 302.862 441.216 297.839 440.946C291.984 440.618 285.953 444.272 276.76 449.834C274.313 451.322 271.538 452.996 268.563 454.788L273.118 457.399L378.838 518.386C405.935 512.393 432.233 503.235 457.191 491.101C458.846 490.32 460.485 489.489 462.109 488.607L335.827 415.828Z" fill="#34A573"/>
<path opacity="0.2" d="M101.354 358.155L189.32 409.036L189.637 408.837L192.096 407.432L194.438 406.073C206.148 399.293 214.427 394.293 213.795 390.475C213.326 387.583 208.092 385.944 203.771 385.428C201.432 385.241 199.156 384.575 197.084 383.473C196.305 383.119 195.638 382.559 195.155 381.853C194.672 381.147 194.392 380.322 194.344 379.468C194.344 377.688 195.656 375.814 198.197 374.339C202.881 371.645 209.907 371.353 214.005 373.707C215.553 374.551 216.751 375.916 217.39 377.559C218.291 380.065 221.137 383.086 226.149 383.344C233.07 383.719 240.822 379.245 253.598 371.845L256.631 370.088L168.804 319.254L101.354 358.155ZM335.827 415.828C333.063 417.397 330.393 418.884 327.77 420.336C317.231 426.192 309.643 430.384 310.205 433.838C310.396 434.697 310.896 435.456 311.61 435.97C313.554 437.55 317.114 438.511 320.229 438.874C322.566 439.061 324.841 439.723 326.915 440.818C327.694 441.179 328.361 441.744 328.845 442.453C329.33 443.162 329.614 443.989 329.667 444.846C329.624 445.83 329.267 446.774 328.648 447.539C327.86 448.524 326.885 449.344 325.779 449.951C321.095 452.657 314.069 452.926 309.982 450.596C308.441 449.747 307.247 448.383 306.61 446.743C305.696 444.237 302.862 441.216 297.839 440.946C291.984 440.618 285.953 444.272 276.76 449.834C274.313 451.322 271.538 452.996 268.563 454.788L273.118 457.399L378.838 518.386C405.935 512.393 432.233 503.235 457.191 491.101C458.846 490.32 460.485 489.489 462.109 488.607L335.827 415.828Z" fill="white"/>
<path d="M191.885 205.22L135.043 147.208L78.2021 270.856L101.353 257.495V358.167L168.734 319.254V218.582L191.885 205.22Z" fill="#34A573"/>
<path d="M167.154 25.7263L170.046 19.6956L157.399 12.365C155.904 11.4964 154.302 10.8272 152.633 10.3743C152.048 10.222 151.462 10.0932 150.865 9.98782C147.91 9.49998 144.889 9.58346 141.965 10.2337C140.88 10.4598 139.808 10.7491 138.756 11.1003C137.631 11.4641 136.524 11.8863 135.442 12.365C133.981 13.0135 132.558 13.7446 131.18 14.5548C129.649 15.4457 128.167 16.4191 126.742 17.4706C125.641 18.2669 124.564 19.1218 123.486 20.0234C107.795 33.3028 95.499 56.9222 92.3139 79.64C92.0914 81.1857 91.9274 82.7198 91.7986 84.2538C91.6113 86.4553 91.5293 88.6334 91.5293 90.7764C91.5293 92.5446 91.6113 94.2894 91.7401 95.8937C91.8572 97.3224 92.0211 98.7042 92.2202 100.039C92.4193 101.374 92.6769 102.639 92.9696 103.88C93.7466 107.283 94.992 110.562 96.6701 113.623C97.0097 114.232 97.361 114.794 97.7357 115.379C99.2319 117.71 101.127 119.76 103.333 121.434C103.996 121.919 104.684 122.368 105.394 122.78L117.35 129.678L119.997 124.162C120.699 124.01 121.402 123.823 122.116 123.612C125.027 122.714 127.822 121.476 130.442 119.923C132.127 118.931 133.757 117.848 135.325 116.679C137.43 115.102 139.433 113.393 141.321 111.562C154.425 98.9501 164.741 79.2301 168.524 59.5922C169.084 56.7108 169.498 53.803 169.765 50.8798C169.976 48.4675 170.093 46.0786 170.081 43.7249C170.082 40.3236 169.804 36.9279 169.25 33.5721C168.79 30.8988 168.088 28.2728 167.154 25.7263Z" fill="#34A573"/>
<path opacity="0.25" d="M95.1934 66.2318L120.85 81.0452L124.223 71.2789L98.5425 56.4304C97.2661 59.639 96.1419 62.9062 95.1934 66.2318Z" fill="white"/>
<path opacity="0.25" d="M157.4 12.365C155.905 11.4964 154.303 10.8272 152.634 10.3743C152.048 10.222 151.463 10.0932 150.866 9.98782C147.911 9.49998 144.89 9.58346 141.966 10.2337L140.795 10.5148L167.19 25.738C167.19 25.738 167.19 25.738 167.19 25.6795L170.082 19.6487L157.4 12.365Z" fill="white"/>
<path opacity="0.25" d="M154.659 49.8375L158.032 45.7741L119.564 23.6536C118.346 24.8636 117.151 26.1361 115.98 27.4711L154.659 49.8375Z" fill="white"/>
<path opacity="0.25" d="M107.805 38.3499L141.167 57.5897L144.832 47.9991L113.8 30.0825C111.655 32.7286 109.653 35.4884 107.805 38.3499Z" fill="white"/>
<path opacity="0.4" d="M157.398 12.365C155.903 11.4964 154.301 10.8272 152.632 10.3743C152.047 10.222 151.461 10.0932 150.864 9.98782C147.909 9.49998 144.888 9.58346 141.964 10.2337C140.879 10.4598 139.807 10.7491 138.756 11.1003C137.63 11.4641 136.524 11.8863 135.442 12.365C133.98 13.0135 132.557 13.7446 131.179 14.5548C129.648 15.4457 128.167 16.4191 126.741 17.4706C125.64 18.2669 124.563 19.1218 123.486 20.0234C108.871 32.366 97.161 53.7019 93.0391 74.9208L146.555 105.824C157.578 92.458 165.1 76.5573 168.441 59.557C169.001 56.6757 169.415 53.7678 169.682 50.8446C169.893 48.4323 170.01 46.0435 169.998 43.6897C169.999 40.2884 169.721 36.8928 169.167 33.537C168.719 30.8648 168.029 28.2388 167.106 25.6912L169.998 19.6604L157.398 12.365Z" fill="white"/>
<path opacity="0.1" d="M117.315 129.677L119.962 124.162C120.664 124.01 121.367 123.822 122.081 123.612C124.992 122.714 127.787 121.476 130.407 119.923C132.092 118.93 133.722 117.848 135.29 116.679C137.395 115.102 139.398 113.393 141.286 111.562C143.156 109.754 144.93 107.851 146.602 105.859L93.0868 74.9558C92.7823 76.5133 92.5247 78.0824 92.3139 79.6399C92.1031 81.1973 91.9274 82.7197 91.7986 84.2537C91.6113 86.4552 91.5293 88.6333 91.5293 90.7763C91.5293 92.5445 91.6113 94.2893 91.7401 95.8936C91.8572 97.3223 92.0211 98.7041 92.2202 100.039C92.4193 101.374 92.6769 102.639 92.9696 103.88C93.7466 107.283 94.992 110.562 96.6701 113.623C97.0097 114.232 97.361 114.794 97.7357 115.379C99.2319 117.71 101.127 119.759 103.333 121.434C103.996 121.919 104.684 122.368 105.394 122.78L117.315 129.677Z" fill="black"/>
<path opacity="0.1" d="M96.6697 113.623C97.0093 114.232 97.3606 114.794 97.7353 115.38C99.2316 117.71 101.126 119.76 103.333 121.434C103.995 121.919 104.683 122.369 105.394 122.78L117.35 129.678L119.996 124.162H120.102L120.289 121.902L93.707 106.55C94.439 109.007 95.4322 111.378 96.6697 113.623Z" fill="black"/>
<path d="M182.729 41.371C182.183 37.9014 181.204 34.5141 179.814 31.2885C178.126 27.2725 175.457 23.745 172.05 21.0304C169.961 19.4233 167.572 18.2489 165.024 17.5759C164.438 17.4237 163.853 17.2949 163.244 17.1895C160.289 16.7016 157.268 16.7851 154.344 17.4354C153.259 17.6644 152.188 17.9537 151.135 18.3019C150.01 18.6678 148.904 19.0899 147.821 19.5666C146.373 20.2084 144.961 20.9316 143.594 21.733C142.057 22.6197 140.571 23.5932 139.144 24.6489C138.055 25.4452 136.966 26.3 135.9 27.2017C120.209 40.4459 107.796 64.0653 104.716 86.7831C104.505 88.3288 104.33 89.8629 104.213 91.3969C104.025 93.5867 103.932 95.7765 103.943 97.9195C103.943 99.6877 104.014 101.433 104.154 103.037C104.271 104.465 104.423 105.847 104.634 107.182C104.845 108.517 105.091 109.782 105.384 111.023C106.139 114.428 107.373 117.708 109.049 120.766C109.392 121.375 109.744 121.96 110.103 122.523C111.603 124.854 113.502 126.903 115.712 128.577C118.915 130.977 122.768 132.357 126.767 132.535C129.76 132.67 132.753 132.274 135.608 131.364C138.52 130.469 141.314 129.231 143.934 127.675C145.621 126.687 147.252 125.604 148.817 124.431C150.922 122.854 152.924 121.145 154.812 119.314C167.916 106.714 178.233 86.9822 182.015 67.3442C182.572 64.4626 182.982 61.5548 183.245 58.6318C183.467 56.2898 183.573 53.8306 183.573 51.4769C183.573 48.0907 183.291 44.7104 182.729 41.371Z" fill="#34A573"/>
<path opacity="0.05" d="M105.501 82.0874C105.196 83.6566 104.939 85.2374 104.716 86.7715C104.494 88.3055 104.33 89.8513 104.213 91.3853C104.025 93.5751 103.932 95.7649 103.943 97.9079C103.943 99.6761 104.014 101.421 104.154 103.025C104.271 104.454 104.423 105.836 104.634 107.171C104.845 108.506 105.091 109.77 105.384 111.012C106.139 114.416 107.373 117.696 109.049 120.754C109.392 121.363 109.744 121.949 110.103 122.511C111.603 124.842 113.502 126.892 115.712 128.565C118.915 130.966 122.768 132.345 126.767 132.523C129.76 132.659 132.753 132.262 135.608 131.352C138.52 130.457 141.314 129.219 143.934 127.663C145.397 126.809 146.849 125.837 148.278 124.806L105.501 82.0874Z" fill="black"/>
<path opacity="0.05" d="M106.12 113.799C106.841 116.239 107.823 118.594 109.048 120.825C109.391 121.434 109.742 122.019 110.102 122.581C111.602 124.913 113.501 126.962 115.711 128.635C118.338 130.601 121.412 131.885 124.657 132.371L106.12 113.799Z" fill="black"/>
<path opacity="0.1" d="M110.944 63.6086C109.667 66.8172 108.602 70.0844 107.595 73.3749L154.178 119.958L154.81 119.361C156.827 117.411 158.735 115.35 160.525 113.19L110.944 63.6086Z" fill="white"/>
<path opacity="0.1" d="M126.169 37.2493C124.035 39.8935 122.049 42.6535 120.22 45.5167L171.487 96.7956C173.15 93.6689 174.672 90.4252 176.042 87.1229L126.169 37.2493Z" fill="white"/>
<path opacity="0.1" d="M131.988 30.8086C130.817 31.9796 129.552 33.3146 128.369 34.6495L177.388 83.6684C178.075 81.8416 178.715 79.9914 179.308 78.1177L131.988 30.8086Z" fill="white"/>
<path opacity="0.1" d="M183.455 47.9756C183.455 47.027 183.327 46.1019 183.233 45.1885C183.233 44.8958 183.233 44.5913 183.139 44.2868L183.034 43.3617C182.94 42.6943 182.846 42.0268 182.729 41.371C182.183 37.9014 181.204 34.5141 179.814 31.2885C178.126 27.2725 175.457 23.745 172.05 21.0304C169.961 19.4233 167.572 18.2489 165.024 17.5759C164.438 17.4237 163.853 17.2949 163.244 17.1895C160.289 16.7016 157.267 16.7851 154.344 17.4354L153.173 17.7164L183.455 47.9756Z" fill="white"/>
<path d="M173.418 57.6132C173.418 78.5627 161.205 102.768 145.747 113.049C145.092 113.494 144.424 113.904 143.757 114.29C127.362 123.752 114.083 113.717 114.083 91.8655C114.083 70.0143 127.362 44.6383 143.757 35.1765C144.424 34.8017 145.092 34.4387 145.747 34.1226C161.205 26.5578 173.418 36.652 173.418 57.6132Z" fill="#34A573"/>
<path opacity="0.4" d="M173.418 57.6132C173.418 78.5627 161.205 102.768 145.747 113.049C145.092 113.494 144.424 113.904 143.757 114.29C127.362 123.752 114.083 113.717 114.083 91.8655C114.083 70.0143 127.362 44.6383 143.757 35.1765C144.424 34.8017 145.092 34.4387 145.747 34.1226C161.205 26.5578 173.418 36.652 173.418 57.6132Z" fill="black"/>
<path d="M172.107 58.3744C172.107 59.0536 172.107 59.7328 172.107 60.4119C171.357 79.9445 159.975 101.843 145.7 111.351L145.314 111.609C144.811 111.925 144.307 112.241 143.803 112.534C141.072 114.183 138.045 115.285 134.892 115.778C128.241 116.679 122.678 113.764 119.235 107.803C116.988 103.655 115.715 99.0497 115.512 94.3364C115.441 93.3059 115.406 92.2519 115.406 91.1512C115.406 90.0504 115.406 89.1487 115.5 88.13C115.624 85.9719 115.862 83.822 116.214 81.6894C118.72 66.5949 126.753 51.2429 137.012 41.9684C138.428 40.673 139.935 39.4795 141.52 38.3968C142.258 37.8933 143.007 37.4249 143.757 36.9916C144.506 36.5583 145.033 36.289 145.654 35.9728L146.181 35.7269C149.789 33.8851 153.889 33.2333 157.891 33.865C163.863 35.036 168.43 39.7201 170.667 47.3668C171.657 50.951 172.142 54.656 172.107 58.3744Z" fill="#34A573"/>
<path opacity="0.5" d="M172.107 58.3744C172.107 59.0536 172.107 59.7328 172.107 60.4119C171.357 79.9445 159.975 101.843 145.7 111.351L145.314 111.609C144.811 111.925 144.307 112.241 143.803 112.534C141.072 114.183 138.045 115.285 134.892 115.778C128.241 116.679 122.678 113.764 119.235 107.803C116.988 103.655 115.715 99.0497 115.512 94.3364C115.441 93.3059 115.406 92.2519 115.406 91.1512C115.406 90.0504 115.406 89.1487 115.5 88.13C115.624 85.9719 115.862 83.822 116.214 81.6894C118.72 66.5949 126.753 51.2429 137.012 41.9684C138.428 40.673 139.935 39.4795 141.52 38.3968C142.258 37.8933 143.007 37.4249 143.757 36.9916C144.506 36.5583 145.033 36.289 145.654 35.9728L146.181 35.7269C149.789 33.8851 153.889 33.2333 157.891 33.865C163.863 35.036 168.43 39.7201 170.667 47.3668C171.657 50.951 172.142 54.656 172.107 58.3744Z" fill="black"/>
<path d="M167.353 57.6834C167.353 56.9925 167.353 56.3133 167.353 55.6342C167.395 51.9007 166.914 48.1798 165.924 44.5797C164.945 40.6596 162.855 37.1056 159.905 34.345C159.263 34.1201 158.606 33.9439 157.938 33.8181C153.936 33.1864 149.836 33.8382 146.227 35.68L145.701 35.9259C145.08 36.2421 144.436 36.57 143.803 36.9447C143.171 37.3194 142.305 37.8464 141.567 38.3499C139.982 39.4327 138.475 40.6262 137.058 41.9215C126.812 51.1609 118.767 66.5129 116.261 81.6425C115.909 83.7751 115.67 85.9251 115.547 88.0831C115.477 89.1019 115.453 90.1089 115.453 91.1043C115.453 92.0997 115.453 93.259 115.559 94.2895C115.74 99.0151 116.998 103.637 119.236 107.803C120.212 109.53 121.471 111.082 122.959 112.393C125.283 113.175 127.759 113.395 130.185 113.037C133.337 112.548 136.363 111.451 139.096 109.805C139.6 109.513 140.115 109.197 140.607 108.869L140.993 108.611C155.221 99.1141 166.603 77.216 167.353 57.6834Z" fill="#34A573"/>
<path opacity="0.25" d="M167.353 57.6834C167.353 56.9925 167.353 56.3133 167.353 55.6342C167.395 51.9007 166.914 48.1798 165.924 44.5797C164.945 40.6596 162.855 37.1056 159.905 34.345C159.263 34.1201 158.606 33.9439 157.938 33.8181C153.936 33.1864 149.836 33.8382 146.227 35.68L145.701 35.9259C145.08 36.2421 144.436 36.57 143.803 36.9447C143.171 37.3194 142.305 37.8464 141.567 38.3499C139.982 39.4327 138.475 40.6262 137.058 41.9215C126.812 51.1609 118.767 66.5129 116.261 81.6425C115.909 83.7751 115.67 85.9251 115.547 88.0831C115.477 89.1019 115.453 90.1089 115.453 91.1043C115.453 92.0997 115.453 93.259 115.559 94.2895C115.74 99.0151 116.998 103.637 119.236 107.803C120.212 109.53 121.471 111.082 122.959 112.393C125.283 113.175 127.759 113.395 130.185 113.037C133.337 112.548 136.363 111.451 139.096 109.805C139.6 109.513 140.115 109.197 140.607 108.869L140.993 108.611C155.221 99.1141 166.603 77.216 167.353 57.6834Z" fill="black"/>
<path d="M163.264 17.1896C146.132 15.2575 132.196 29.4502 122.899 42.2026C109.467 62.0045 100.954 87.076 105.603 111.047C107.125 117.71 110.17 124.408 115.72 128.612C110.053 124.455 106.762 117.768 105.181 111.047C100.895 91.4205 106.282 70.7989 115.264 53.2453C124.854 35.9142 141.166 14.8242 163.264 17.1896Z" fill="#F5F5F5"/>
<path opacity="0.35" d="M150.303 63.6321L144.612 60.3415L155.62 50.95L161.311 54.2405L150.303 63.6321Z" fill="black"/>
<path opacity="0.35" d="M153.803 65.7985C150.887 63.7375 145.84 65.295 141.554 66.6416C140.524 66.9929 139.599 67.2974 138.756 67.555C138.489 68.1854 138.346 68.8613 138.334 69.5458C138.334 72.8597 141.144 71.8878 147.257 69.9439C149.318 69.2368 151.427 68.681 153.569 68.2811C153.756 69.9673 154.927 71.5014 159.494 69.0891L153.803 65.7985Z" fill="black"/>
<path opacity="0.45" d="M139.707 108.962L134.016 105.672V98.95L139.707 102.241V108.962Z" fill="black"/>
<path opacity="0.35" d="M149.365 83.4458C149.365 86.1157 147.363 88.5046 144.389 90.2377C139.705 92.9896 137.796 90.7412 137.363 88.5514L136.355 87.9659C137.175 87.7237 137.962 87.3816 138.698 86.9471C140.758 85.8925 142.392 84.1596 143.323 82.0406C146.813 80.893 149.365 80.448 149.365 83.4458Z" fill="black"/>
<path opacity="0.35" d="M128.183 99.922C127.556 99.555 126.835 99.3799 126.11 99.4184C125.988 99.0695 125.886 98.7137 125.805 98.3528L120.091 95.0623C120.244 96.0526 120.608 96.9986 121.158 97.8368C121.707 98.675 122.429 99.386 123.276 99.922L128.955 103.213C129.224 102.659 129.293 102.029 129.153 101.43C129.012 100.831 128.669 100.298 128.183 99.922Z" fill="black"/>
<path d="M147.258 69.9439C141.146 71.9463 138.335 72.8597 138.335 69.5457C138.347 68.8613 138.49 68.1854 138.757 67.555C134.588 68.8431 132.644 69.007 132.644 66.2552C132.644 64.2293 134.014 61.735 137.785 59.5452C141.802 57.2032 144.05 57.7536 144.612 60.3415L155.62 50.9734C155.62 50.8328 155.526 50.704 155.467 50.5635C156.153 50.4138 156.813 50.1611 157.423 49.8141L152.879 47.0973L152.446 46.8397H152.376C151.035 46.1873 149.534 45.9391 148.055 46.1254C146.082 46.339 144.155 46.8564 142.34 47.6594V47.4954L148.031 44.1815L142.34 40.9377L138.488 43.1861L133.265 46.219V52.929C125.548 58.5499 120.735 65.8804 120.735 73.8199C120.735 77.4267 121.707 79.476 123.288 80.5182H123.358C123.493 80.6051 123.634 80.6833 123.78 80.7524L128.546 83.434C128.677 82.7254 128.587 81.9936 128.288 81.3379C129.801 81.1454 131.294 80.8201 132.75 80.3659C138.534 78.6211 143.675 75.8692 143.675 80.1551C143.678 80.8001 143.558 81.4397 143.324 82.0405C146.837 80.8695 149.366 80.4479 149.366 83.4457C149.366 86.1156 147.364 88.5045 144.389 90.2376C139.705 92.9895 137.797 90.7411 137.363 88.5513L136.356 87.9658L131.672 85.2608L120.091 95.0622L125.782 98.3528C125.963 99.1917 126.254 100.003 126.649 100.765C129.195 100.675 131.696 100.057 133.991 98.95V101.667L142.984 100.437V93.7273C150.783 87.9776 156.158 80.2371 156.158 72.1454C156.205 70.766 155.986 69.3906 155.514 68.0937C152.693 68.3427 149.916 68.9649 147.258 69.9439Z" fill="#34A573"/>
<path opacity="0.15" d="M147.258 69.9439C141.146 71.9463 138.335 72.8597 138.335 69.5457C138.347 68.8613 138.49 68.1854 138.757 67.555C134.588 68.8431 132.644 69.007 132.644 66.2552C132.644 64.2293 134.014 61.735 137.785 59.5452C141.802 57.2032 144.05 57.7536 144.612 60.3415L155.62 50.9734C155.62 50.8328 155.526 50.704 155.467 50.5635C156.153 50.4138 156.813 50.1611 157.423 49.8141L152.879 47.0973L152.446 46.8397H152.376C151.035 46.1873 149.534 45.9391 148.055 46.1254C146.082 46.339 144.155 46.8564 142.34 47.6594V47.4954L148.031 44.1815L142.34 40.9377L138.488 43.1861L133.265 46.219V52.929C125.548 58.5499 120.735 65.8804 120.735 73.8199C120.735 77.4267 121.707 79.476 123.288 80.5182H123.358C123.493 80.6051 123.634 80.6833 123.78 80.7524L128.546 83.434C128.677 82.7254 128.587 81.9936 128.288 81.3379C129.801 81.1454 131.294 80.8201 132.75 80.3659C138.534 78.6211 143.675 75.8692 143.675 80.1551C143.678 80.8001 143.558 81.4397 143.324 82.0405C146.837 80.8695 149.366 80.4479 149.366 83.4457C149.366 86.1156 147.364 88.5045 144.389 90.2376C139.705 92.9895 137.797 90.7411 137.363 88.5513L136.356 87.9658L131.672 85.2608L120.091 95.0622L125.782 98.3528C125.963 99.1917 126.254 100.003 126.649 100.765C129.195 100.675 131.696 100.057 133.991 98.95V101.667L142.984 100.437V93.7273C150.783 87.9776 156.158 80.2371 156.158 72.1454C156.205 70.766 155.986 69.3906 155.514 68.0937C152.693 68.3427 149.916 68.9649 147.258 69.9439Z" fill="black"/>
<g opacity="0.2">
<path d="M133.287 52.929C128.953 56.223 125.435 60.4702 123.006 65.3417C121.867 67.7862 121.203 70.4249 121.05 73.1173C120.921 74.4553 120.992 75.8052 121.261 77.1222C121.489 78.4643 122.207 79.6742 123.275 80.5181C122.105 79.7532 121.268 78.5732 120.933 77.2159C120.582 75.8714 120.432 74.4823 120.488 73.0939C120.593 70.3132 121.254 67.5816 122.432 65.0607C123.639 62.5614 125.219 60.2595 127.116 58.2337C128.953 56.2239 131.025 54.4428 133.287 52.929Z" fill="black"/>
</g>
<path d="M155.538 68.0936C152.708 68.3407 149.924 68.9629 147.259 69.9438C141.146 71.9463 138.336 72.8597 138.336 69.5457C138.347 68.8612 138.49 68.1854 138.757 67.555C139.781 65.5351 141.421 63.8943 143.441 62.8709C147.458 60.5288 149.706 61.0909 150.268 63.6789L161.276 54.3107C160.926 52.8906 160.103 51.6316 158.944 50.7401C157.784 49.8486 156.356 49.3776 154.894 49.4042C152.516 49.4601 150.176 50.0062 148.02 51.0085V44.2283L142.34 47.4954L138.956 49.4627V56.1727C131.239 61.7936 126.426 69.1358 126.426 77.0519C126.376 78.5501 126.611 80.0441 127.117 81.4549C128.827 85.7057 133.488 85.1202 138.406 83.6799C140.127 83.1646 141.802 82.5089 143.289 82.0639C146.802 80.8929 149.331 80.4713 149.331 83.4691C149.331 86.139 147.329 88.5279 144.355 90.261C139.67 93.0129 137.762 90.7645 137.328 88.5747L125.759 98.3762C125.939 99.2151 126.231 100.026 126.625 100.788C128.136 103.611 130.829 104.395 133.968 103.974C135.936 103.674 137.852 103.099 139.659 102.264V108.986L148.652 103.786V97.0295C156.451 91.2915 161.826 83.5511 161.826 75.4593C161.873 69.6159 159.109 68.0117 155.538 68.0936Z" fill="#34A573"/>
<g opacity="0.1">
<path d="M155.537 68.0936C152.707 68.3407 149.923 68.9629 147.258 69.9438C141.145 71.9463 138.335 72.8597 138.335 69.5457C138.346 68.8612 138.489 68.1854 138.756 67.555C139.78 65.5351 141.42 63.8943 143.44 62.8709C147.457 60.5288 149.705 61.0909 150.267 63.6789L161.275 54.3107C160.925 52.8906 160.102 51.6316 158.943 50.7401C157.783 49.8486 156.355 49.3776 154.893 49.4042C152.515 49.4601 150.175 50.0062 148.019 51.0085V44.2283L142.339 47.4954L138.955 49.4627V56.1727C131.238 61.7936 126.425 69.1358 126.425 77.0519C126.375 78.5501 126.61 80.0441 127.116 81.4549C128.826 85.7057 133.487 85.1202 138.405 83.6799C140.126 83.1646 141.801 82.5089 143.288 82.0639C146.801 80.8929 149.33 80.4713 149.33 83.4691C149.33 86.139 147.328 88.5279 144.354 90.261C139.67 93.0129 137.761 90.7645 137.327 88.5747L125.758 98.3762C125.939 99.2151 126.23 100.026 126.624 100.788C128.135 103.611 130.828 104.395 133.967 103.974C135.935 103.674 137.851 103.099 139.658 102.264V108.986L148.651 103.786V97.0295C156.45 91.2915 161.825 83.5511 161.825 75.4593C161.872 69.6159 159.108 68.0117 155.537 68.0936Z" fill="white"/>
</g>
<path opacity="0.1" d="M136.567 89.2305L129.459 95.2378L137.352 103.142C138.125 102.885 138.909 102.592 139.694 102.24V105.484L141.895 107.686L148.687 103.763V101.421L136.567 89.2305Z" fill="white"/>
<path opacity="0.1" d="M155.538 68.0936C152.709 68.3406 149.925 68.9628 147.259 69.9438L145.28 70.5879L159.508 84.804C161.013 81.9082 161.815 78.699 161.85 75.4359C161.859 74.5161 161.772 73.5978 161.593 72.6957L157.084 68.1873C156.573 68.1091 156.055 68.0777 155.538 68.0936Z" fill="white"/>
<path opacity="0.1" d="M140.15 65.4472C141.128 64.4037 142.261 63.5188 143.511 62.8242C147.528 60.4821 149.776 61.0442 150.338 63.6322L151.509 62.6017L138.979 50.0601V56.2196C137.436 57.3465 135.973 58.5791 134.6 59.9083L140.15 65.4472Z" fill="white"/>
<path opacity="0.1" d="M151.078 49.8959C150.052 50.1843 149.043 50.5323 148.057 50.9382V46.8747L146.382 45.1533L142.342 47.4954L141.651 47.8935L154.111 60.3766L158.139 56.9455L151.078 49.8959Z" fill="white"/>
<path opacity="0.1" d="M132.035 84.6987L126.59 79.2651C126.679 80.0132 126.856 80.7482 127.117 81.4549C127.495 82.4415 128.173 83.2849 129.055 83.8667C129.937 84.4484 130.979 84.7394 132.035 84.6987Z" fill="white"/>
<path d="M138.98 56.2195L133.289 52.9289V46.219L138.98 49.5096V56.2195Z" fill="#34A573"/>
<path opacity="0.35" d="M138.98 56.2195L133.289 52.9289V46.219L138.98 49.5096V56.2195Z" fill="black"/>
<path d="M148.7 97.0062C148.7 97.0062 149.028 96.7602 149.578 96.3035C149.925 96.0483 150.257 95.7746 150.574 95.4838C150.949 95.156 151.394 94.8046 151.839 94.3831C152.284 93.9615 152.775 93.5165 153.267 93.013L154.017 92.2401C154.274 91.9708 154.52 91.6897 154.778 91.4087C155.035 91.1276 155.293 90.8349 155.539 90.5304C155.785 90.226 156.054 89.9215 156.3 89.6053C156.78 88.9613 157.284 88.3172 157.717 87.6263C158.15 86.9354 158.584 86.2445 158.993 85.5536C159.375 84.866 159.719 84.1585 160.024 83.4341C160.352 82.7432 160.574 82.0405 160.832 81.3848C160.926 81.0491 161.019 80.7212 161.113 80.4011L161.254 79.9327C161.254 79.7805 161.324 79.6282 161.347 79.476C161.476 78.8788 161.605 78.305 161.663 77.8366C161.722 77.3682 161.804 76.9115 161.816 76.5602C161.816 75.8459 161.874 75.3892 161.874 75.3892C161.874 75.3892 161.874 75.799 161.874 76.5602C161.863 76.9912 161.828 77.4212 161.769 77.8483C161.715 78.4071 161.629 78.9623 161.511 79.5111C161.511 79.6634 161.511 79.8156 161.417 79.9678C161.324 80.1201 161.335 80.284 161.289 80.448C161.242 80.6119 161.113 81.1037 161.019 81.4433C160.797 82.147 160.539 82.8388 160.246 83.516C159.954 84.2421 159.591 84.9447 159.216 85.659C158.841 86.3733 158.42 87.0876 157.94 87.7551C157.459 88.4226 156.991 89.1018 156.499 89.7458C156.253 90.062 155.984 90.3665 155.738 90.671L154.965 91.5492L154.192 92.3806L153.408 93.1418C152.916 93.6336 152.401 94.0669 151.944 94.4768C151.487 94.8866 151.042 95.2379 150.656 95.5541C150.269 95.8703 149.918 96.1279 149.637 96.3387L148.7 97.0062Z" fill="white"/>
<path d="M138.979 49.5096L148.054 44.2283V50.9382L147.445 45.3173L138.979 49.5096Z" fill="#FAFAFA"/>
<path d="M139.704 102.24L140.184 108.072L148.698 103.763L139.704 108.962V102.24Z" fill="#FAFAFA"/>
<path d="M167.411 23.1619L168.172 13.1731L168.933 23.1619L178.922 23.923L168.933 24.6842L168.172 34.673L167.411 24.6842L157.422 23.923L167.411 23.1619Z" fill="white"/>
<path d="M175.783 31.6752L176.146 26.8271L176.52 31.6752L181.357 32.0382L176.52 32.4129L176.146 37.2492L175.783 32.4129L170.935 32.0382L175.783 31.6752Z" fill="white"/>
<path d="M418.608 306.103L411.792 308.633L410.387 303.878L416.137 303.996L418.608 306.103Z" fill="black"/>
<path d="M415.68 292.754C415.68 292.754 418.842 295.763 419.825 296.735C420.809 297.707 419.24 304.639 418.654 306.103L416.183 303.995C416.245 306.028 416.571 308.043 417.155 309.991C417.624 312.157 419.052 315.846 418.397 319.675C417.436 325.413 413.268 331.479 407.857 336.444C402.447 341.409 398.056 342.826 395.386 343.025C392.716 343.225 390.971 342.288 390.105 340.59C389.238 338.892 415.68 292.754 415.68 292.754Z" fill="#263238"/>
<path d="M390.667 294.58L388.887 292.777C387.833 293.632 390.198 296.419 390.877 300.049C391.979 305.44 392.349 310.954 391.978 316.443C390.912 326.221 388.746 333.646 388.301 338.025C387.68 343.88 398.009 343.552 406.651 335.285C410.937 331.175 416.932 322.134 416.804 317.649C416.675 313.164 414.368 307.989 414.462 304.581C414.555 301.173 416.675 295.986 415.703 292.765C415.164 290.997 412.19 288.374 409.497 286.231C407.061 284.264 404.812 279.79 403.735 281.207L404.695 282.73C405.07 284.182 404.332 287.671 401.241 291.384C399.672 293.222 394.402 298.011 390.667 294.58Z" fill="#455A64"/>
<path opacity="0.15" d="M398.384 293.96C396.51 295.307 394.133 296.302 392.002 295.471H391.932C392.615 296.015 393.162 296.711 393.53 297.504C393.898 298.297 394.076 299.164 394.051 300.038C394.121 303.246 395.808 324.922 395.808 324.922C395.808 324.922 395.503 306.115 395.48 302.544C395.48 297.262 395.995 296.185 398.396 293.983L398.384 293.96Z" fill="black"/>
<path d="M388.252 338.013C388.627 334.313 390.231 328.446 391.356 320.811C391.754 323.153 391.414 325.495 391.73 326.081C392.491 327.591 397.796 326.081 400.618 324.711C403.44 323.341 403.101 318.001 403.827 312.298C404.553 306.595 410.595 307.368 415.42 310.366C416.128 312.734 416.575 315.172 416.755 317.638C416.884 322.123 410.9 331.163 406.602 335.273C398.007 343.541 387.679 343.88 388.252 338.013Z" fill="#37474F"/>
<path opacity="0.15" d="M399.283 299.265C399.423 299.4 399.61 299.475 399.804 299.475C399.999 299.475 400.185 299.4 400.325 299.265C400.394 299.2 400.449 299.122 400.486 299.035C400.524 298.949 400.543 298.855 400.543 298.761C400.543 298.667 400.524 298.573 400.486 298.487C400.449 298.4 400.394 298.322 400.325 298.258C400.183 298.122 399.995 298.046 399.798 298.046C399.602 298.046 399.413 298.122 399.271 298.258C399.202 298.322 399.146 298.4 399.109 298.488C399.071 298.575 399.053 298.669 399.054 298.764C399.055 298.859 399.076 298.952 399.115 299.038C399.155 299.125 399.212 299.202 399.283 299.265Z" fill="black"/>
<path opacity="0.15" d="M399.238 304.464C399.389 304.589 399.581 304.653 399.777 304.642C399.973 304.632 400.157 304.547 400.292 304.405C400.36 304.34 400.413 304.261 400.45 304.175C400.486 304.088 400.505 303.996 400.505 303.902C400.505 303.808 400.486 303.715 400.45 303.628C400.413 303.542 400.36 303.464 400.292 303.398C400.145 303.267 399.951 303.199 399.753 303.21C399.556 303.221 399.371 303.31 399.238 303.457C399.171 303.522 399.118 303.6 399.081 303.687C399.045 303.773 399.026 303.866 399.026 303.96C399.026 304.054 399.045 304.147 399.081 304.233C399.118 304.32 399.171 304.398 399.238 304.464Z" fill="black"/>
<path opacity="0.15" d="M399.204 309.605C399.345 309.741 399.534 309.817 399.731 309.817C399.927 309.817 400.116 309.741 400.258 309.605C400.322 309.534 400.371 309.452 400.403 309.362C400.434 309.273 400.448 309.178 400.442 309.083C400.437 308.988 400.413 308.895 400.371 308.81C400.329 308.725 400.271 308.648 400.199 308.586C400.049 308.46 399.856 308.396 399.661 308.407C399.465 308.418 399.281 308.503 399.145 308.644C399.028 308.781 398.969 308.957 398.98 309.136C398.991 309.316 399.071 309.484 399.204 309.605Z" fill="black"/>
<path opacity="0.15" d="M399.157 314.757C399.308 314.883 399.5 314.947 399.696 314.936C399.891 314.925 400.076 314.84 400.211 314.699C400.28 314.634 400.335 314.556 400.372 314.469C400.41 314.383 400.429 314.289 400.429 314.195C400.429 314.101 400.41 314.007 400.372 313.921C400.335 313.834 400.28 313.756 400.211 313.692C400.071 313.556 399.885 313.481 399.69 313.481C399.496 313.481 399.309 313.556 399.169 313.692C399.092 313.757 399.029 313.838 398.986 313.929C398.943 314.021 398.92 314.12 398.918 314.222C398.917 314.323 398.938 314.423 398.979 314.516C399.021 314.608 399.081 314.69 399.157 314.757Z" fill="black"/>
<path opacity="0.15" d="M399.122 319.898C399.269 320.029 399.463 320.097 399.661 320.086C399.858 320.075 400.043 319.986 400.175 319.839C400.239 319.77 400.288 319.689 400.32 319.6C400.351 319.511 400.365 319.417 400.359 319.323C400.354 319.229 400.33 319.138 400.288 319.053C400.246 318.969 400.188 318.894 400.117 318.832C399.967 318.707 399.774 318.643 399.578 318.654C399.383 318.664 399.198 318.749 399.063 318.891C398.999 318.96 398.95 319.041 398.919 319.13C398.887 319.219 398.874 319.313 398.879 319.407C398.885 319.501 398.909 319.592 398.95 319.677C398.992 319.761 399.05 319.836 399.122 319.898Z" fill="black"/>
<path d="M399.964 298.983C400.01 298.931 400.039 298.865 400.046 298.796C400.043 298.718 400.012 298.644 399.958 298.588C399.904 298.532 399.831 298.497 399.753 298.492C399.543 298.492 394.566 298.304 391.252 301.489C391.224 301.516 391.201 301.547 391.186 301.583C391.171 301.618 391.163 301.656 391.163 301.694C391.163 301.733 391.171 301.771 391.186 301.806C391.201 301.841 391.224 301.873 391.252 301.899C391.31 301.951 391.385 301.98 391.463 301.98C391.54 301.98 391.615 301.951 391.673 301.899C394.812 298.89 399.683 299.065 399.73 299.077C399.773 299.078 399.816 299.07 399.856 299.054C399.897 299.038 399.933 299.014 399.964 298.983Z" fill="#263238"/>
<path d="M399.963 304.124C400.013 304.074 400.043 304.008 400.045 303.937C400.047 303.899 400.041 303.86 400.028 303.824C400.014 303.788 399.994 303.755 399.968 303.727C399.942 303.698 399.911 303.675 399.876 303.659C399.841 303.643 399.803 303.634 399.764 303.633C399.554 303.633 394.577 303.433 391.263 306.63C391.237 306.656 391.216 306.687 391.202 306.722C391.187 306.756 391.18 306.792 391.18 306.829C391.18 306.866 391.187 306.903 391.202 306.937C391.216 306.971 391.237 307.002 391.263 307.029C391.29 307.057 391.323 307.079 391.359 307.095C391.395 307.11 391.434 307.118 391.474 307.118C391.513 307.118 391.552 307.11 391.588 307.095C391.624 307.079 391.657 307.057 391.684 307.029C394.811 304.031 399.682 304.206 399.741 304.206C399.782 304.211 399.823 304.205 399.862 304.191C399.9 304.177 399.935 304.154 399.963 304.124Z" fill="#263238"/>
<path d="M399.963 309.277C400.013 309.227 400.043 309.16 400.045 309.089C400.045 309.011 400.015 308.935 399.96 308.878C399.906 308.821 399.831 308.788 399.753 308.785C399.542 308.785 394.577 308.586 391.251 311.783C391.223 311.808 391.201 311.839 391.186 311.873C391.171 311.907 391.163 311.944 391.163 311.982C391.163 312.019 391.171 312.056 391.186 312.091C391.201 312.125 391.223 312.156 391.251 312.181C391.278 312.209 391.311 312.232 391.347 312.247C391.383 312.263 391.422 312.27 391.462 312.27C391.501 312.27 391.54 312.263 391.576 312.247C391.613 312.232 391.645 312.209 391.673 312.181C394.799 309.183 399.682 309.359 399.729 309.359C399.772 309.364 399.815 309.359 399.856 309.345C399.896 309.331 399.933 309.307 399.963 309.277Z" fill="#263238"/>
<path d="M399.87 314.417C399.897 314.394 399.919 314.366 399.933 314.333C399.947 314.301 399.954 314.265 399.952 314.23C399.954 314.192 399.948 314.154 399.934 314.119C399.921 314.083 399.9 314.051 399.874 314.024C399.848 313.996 399.816 313.975 399.782 313.96C399.747 313.945 399.709 313.937 399.671 313.937C399.46 313.937 394.484 313.738 391.17 316.923C391.116 316.978 391.086 317.052 391.086 317.128C391.086 317.205 391.116 317.278 391.17 317.333C391.228 317.385 391.303 317.414 391.38 317.414C391.458 317.414 391.533 317.385 391.591 317.333C394.718 314.324 399.601 314.511 399.648 314.511C399.731 314.51 399.811 314.477 399.87 314.417Z" fill="#263238"/>
<path d="M399.835 319.57C399.883 319.519 399.912 319.453 399.917 319.383C399.919 319.344 399.912 319.306 399.899 319.27C399.886 319.233 399.866 319.2 399.84 319.172C399.813 319.144 399.782 319.121 399.747 319.105C399.712 319.089 399.674 319.08 399.636 319.078C399.425 319.078 394.448 318.879 391.123 322.064C391.095 322.089 391.073 322.12 391.058 322.154C391.043 322.189 391.035 322.226 391.035 322.263C391.035 322.301 391.043 322.338 391.058 322.372C391.073 322.406 391.095 322.437 391.123 322.462C391.15 322.491 391.183 322.513 391.219 322.529C391.255 322.544 391.294 322.552 391.333 322.552C391.373 322.552 391.412 322.544 391.448 322.529C391.484 322.513 391.517 322.491 391.544 322.462C394.682 319.465 399.554 319.64 399.601 319.64C399.643 319.645 399.685 319.641 399.725 319.629C399.765 319.617 399.803 319.597 399.835 319.57Z" fill="#263238"/>
<path d="M314.794 154.222C313.928 167.962 313.835 181.739 314.513 195.489C315.461 217.598 316.726 228.149 326.996 241.545C336.165 253.513 386.449 293.901 390.489 297.988C390.489 297.988 406.883 298.293 406.45 282.226C406.45 282.226 394.072 261.242 385.816 247.002C377.561 232.762 367.279 226.392 367.279 226.392L375.804 161.26L314.794 154.222Z" fill="#263238"/>
<path d="M370.056 160.722L375.771 161.26V161.494L367.573 224.296L367.257 225.877H367.363L367.304 226.357C372.976 230.308 377.907 235.227 381.872 240.889C380.033 246.604 376.274 256.651 376.274 256.651C375.993 258.197 380.958 264.076 379.787 282.882C379.705 284.241 379.506 286.208 379.272 288.327C366.871 277.94 349.996 263.736 338.52 253.197C337.783 250.316 335.523 240.831 335.851 233.442C336.178 226.053 336.951 189.856 336.951 189.856C333.514 188.12 330.426 185.766 327.841 182.912C325.693 180.636 324.116 177.883 323.239 174.879C321.093 170.201 319.25 165.39 317.723 160.476L370.056 160.722Z" fill="black"/>
<path d="M358.582 366.469L351.638 364.291L353.641 359.759L358.032 363.331L358.582 366.469Z" fill="black"/>
<path d="M365.02 354.302C365.02 354.302 365.524 358.565 365.653 359.9C365.781 361.235 360.032 365.673 358.627 366.434L358.076 363.296C356.803 364.902 355.74 366.666 354.914 368.542C353.872 370.509 352.572 374.198 349.563 376.798C345.066 380.674 337.853 382.84 330.417 383.426C322.981 384.011 318.613 382.419 316.364 380.955C314.116 379.491 313.402 377.699 313.835 375.861C314.268 374.022 365.02 354.302 365.02 354.302Z" fill="#263238"/>
<path d="M344.329 340.613L344.118 338.142C342.736 338.142 342.76 341.761 340.921 344.993C338.238 349.842 334.935 354.322 331.096 358.319C323.883 365.263 317.349 369.701 314.128 372.828C309.819 376.997 318.075 382.992 330.206 381.833C336.237 381.248 346.812 377.875 349.645 374.315C352.479 370.755 354.06 365.345 356.344 362.746C358.627 360.146 363.674 357.429 365.021 354.338C365.77 352.64 365.126 348.787 364.47 345.508C363.862 342.51 365.021 337.674 363.299 338.119L363.042 339.887C362.386 341.234 359.529 343.494 354.704 344.489C352.257 344.993 345.02 345.508 344.329 340.613Z" fill="#455A64"/>
<path opacity="0.15" d="M350.781 344.782C348.439 344.688 345.91 344.056 344.832 342.077V342.018C345.011 342.87 344.985 343.752 344.755 344.591C344.525 345.43 344.098 346.202 343.509 346.843C341.413 349.384 328.532 367.183 328.532 367.183C328.532 367.183 340.582 352.417 342.9 349.618C346.319 345.496 347.444 344.934 350.758 344.735L350.781 344.782Z" fill="black"/>
<path d="M314.128 372.828C316.845 370.181 321.927 366.598 327.794 361.375C326.623 363.401 324.796 365.017 324.644 365.685C324.246 367.324 329.328 369.362 332.455 370.006C335.581 370.65 338.778 366.317 343.064 362.336C347.35 358.354 351.554 362.617 353.346 367.863C352.346 370.139 351.105 372.302 349.645 374.315C346.811 377.828 336.237 381.248 330.206 381.833C318.075 382.992 309.795 376.997 314.128 372.828Z" fill="#37474F"/>
<path opacity="0.15" d="M347.97 349.478C348.007 349.669 348.117 349.838 348.277 349.949C348.436 350.061 348.633 350.106 348.825 350.075C348.919 350.062 349.01 350.031 349.092 349.982C349.174 349.934 349.245 349.869 349.302 349.793C349.359 349.717 349.4 349.63 349.422 349.537C349.445 349.445 349.449 349.349 349.434 349.255C349.397 349.064 349.287 348.895 349.128 348.784C348.968 348.672 348.771 348.627 348.579 348.658C348.485 348.671 348.394 348.702 348.312 348.751C348.23 348.799 348.159 348.863 348.102 348.94C348.046 349.016 348.005 349.103 347.982 349.195C347.959 349.288 347.955 349.384 347.97 349.478Z" fill="black"/>
<path opacity="0.15" d="M344.574 353.448C344.611 353.639 344.721 353.808 344.881 353.919C345.04 354.031 345.237 354.076 345.429 354.045C345.523 354.032 345.615 354 345.697 353.952C345.779 353.904 345.852 353.84 345.909 353.764C345.967 353.688 346.009 353.601 346.033 353.508C346.057 353.416 346.063 353.32 346.049 353.225C346.01 353.035 345.899 352.868 345.74 352.757C345.582 352.646 345.386 352.6 345.195 352.628C345.099 352.639 345.007 352.67 344.924 352.718C344.841 352.765 344.768 352.829 344.71 352.906C344.652 352.982 344.61 353.07 344.587 353.163C344.564 353.256 344.559 353.353 344.574 353.448Z" fill="black"/>
<path opacity="0.15" d="M341.179 357.406C341.216 357.597 341.326 357.766 341.485 357.877C341.645 357.989 341.841 358.034 342.034 358.003C342.129 357.991 342.221 357.961 342.304 357.913C342.387 357.865 342.46 357.801 342.518 357.725C342.576 357.648 342.618 357.561 342.641 357.468C342.665 357.375 342.669 357.278 342.654 357.183C342.617 356.993 342.507 356.825 342.347 356.715C342.187 356.605 341.99 356.563 341.799 356.598C341.705 356.609 341.614 356.639 341.532 356.686C341.45 356.733 341.377 356.796 341.32 356.872C341.262 356.947 341.22 357.033 341.196 357.124C341.171 357.216 341.166 357.312 341.179 357.406Z" fill="black"/>
<path opacity="0.15" d="M337.795 361.329C337.83 361.519 337.937 361.688 338.095 361.799C338.253 361.911 338.448 361.956 338.639 361.926C338.734 361.914 338.826 361.884 338.909 361.836C338.992 361.788 339.065 361.724 339.123 361.648C339.181 361.571 339.223 361.484 339.246 361.391C339.27 361.298 339.274 361.201 339.259 361.106C339.222 360.915 339.112 360.746 338.953 360.634C338.793 360.523 338.597 360.478 338.404 360.509C338.31 360.522 338.219 360.553 338.138 360.602C338.056 360.65 337.984 360.714 337.928 360.791C337.871 360.867 337.83 360.954 337.807 361.046C337.785 361.139 337.781 361.235 337.795 361.329Z" fill="black"/>
<path opacity="0.15" d="M334.386 365.333C334.402 365.429 334.436 365.521 334.488 365.604C334.54 365.686 334.607 365.757 334.687 365.813C334.767 365.869 334.857 365.908 334.952 365.928C335.047 365.948 335.146 365.949 335.241 365.931C335.335 365.919 335.425 365.889 335.507 365.842C335.589 365.795 335.66 365.731 335.717 365.656C335.774 365.581 335.815 365.495 335.838 365.403C335.861 365.311 335.865 365.216 335.85 365.123C335.816 364.93 335.706 364.759 335.546 364.647C335.386 364.535 335.188 364.491 334.995 364.525C334.901 364.537 334.811 364.567 334.729 364.614C334.647 364.661 334.576 364.725 334.519 364.8C334.462 364.875 334.421 364.962 334.398 365.053C334.375 365.145 334.371 365.24 334.386 365.333Z" fill="black"/>
<path d="M348.745 349.618C348.816 349.611 348.883 349.578 348.932 349.525C348.986 349.47 349.016 349.396 349.016 349.32C349.016 349.243 348.986 349.17 348.932 349.115C346.515 347.149 343.46 346.14 340.348 346.281C340.31 346.284 340.273 346.294 340.239 346.312C340.206 346.33 340.176 346.354 340.152 346.384C340.127 346.413 340.11 346.448 340.099 346.484C340.089 346.521 340.086 346.559 340.091 346.597C340.102 346.674 340.143 346.743 340.204 346.791C340.265 346.839 340.341 346.862 340.419 346.855C343.36 346.742 346.243 347.699 348.534 349.548C348.562 349.574 348.596 349.593 348.632 349.605C348.668 349.617 348.706 349.622 348.745 349.618Z" fill="#263238"/>
<path d="M345.347 353.612C345.418 353.6 345.483 353.567 345.535 353.518C345.588 353.463 345.618 353.39 345.618 353.313C345.618 353.236 345.588 353.163 345.535 353.108C343.124 351.131 340.066 350.117 336.951 350.262C336.909 350.261 336.867 350.268 336.828 350.285C336.788 350.301 336.753 350.326 336.725 350.357C336.696 350.388 336.674 350.425 336.661 350.466C336.649 350.506 336.644 350.549 336.65 350.591C336.655 350.633 336.669 350.673 336.691 350.709C336.714 350.745 336.743 350.776 336.779 350.799C336.814 350.823 336.854 350.838 336.896 350.844C336.938 350.851 336.981 350.848 337.021 350.836C341.413 350.403 345.101 353.506 345.137 353.53C345.195 353.58 345.27 353.609 345.347 353.612Z" fill="#263238"/>
<path d="M341.952 357.581C341.989 357.58 342.024 357.572 342.056 357.555C342.089 357.539 342.117 357.516 342.14 357.488C342.169 357.463 342.193 357.433 342.209 357.399C342.225 357.364 342.234 357.327 342.234 357.289C342.234 357.25 342.225 357.213 342.209 357.178C342.193 357.144 342.169 357.114 342.14 357.089C339.734 355.111 336.679 354.097 333.568 354.244C333.492 354.253 333.423 354.291 333.375 354.35C333.327 354.409 333.304 354.484 333.31 354.56C333.322 354.637 333.362 354.706 333.423 354.754C333.484 354.802 333.561 354.825 333.638 354.818C338.041 354.384 341.718 357.488 341.753 357.511C341.809 357.558 341.88 357.583 341.952 357.581Z" fill="#263238"/>
<path d="M338.567 361.551C338.637 361.536 338.701 361.504 338.755 361.457C338.783 361.431 338.805 361.399 338.82 361.364C338.835 361.329 338.843 361.291 338.843 361.252C338.843 361.214 338.835 361.176 338.82 361.141C338.805 361.105 338.783 361.074 338.755 361.047C336.348 359.072 333.293 358.062 330.183 358.214C330.146 358.218 330.11 358.23 330.078 358.248C330.045 358.267 330.017 358.291 329.994 358.321C329.971 358.35 329.955 358.384 329.945 358.419C329.935 358.455 329.932 358.493 329.937 358.53C329.941 358.567 329.953 358.602 329.972 358.635C329.99 358.667 330.015 358.695 330.044 358.718C330.073 358.741 330.107 358.758 330.143 358.768C330.179 358.778 330.216 358.78 330.253 358.776C333.196 358.664 336.08 359.626 338.368 361.481C338.424 361.526 338.495 361.551 338.567 361.551Z" fill="#263238"/>
<path d="M335.172 365.509C335.208 365.507 335.243 365.497 335.275 365.481C335.308 365.465 335.336 365.443 335.36 365.415C335.386 365.389 335.407 365.358 335.421 365.324C335.435 365.29 335.442 365.253 335.442 365.216C335.442 365.179 335.435 365.143 335.421 365.109C335.407 365.074 335.386 365.043 335.36 365.017C332.948 363.04 329.891 362.027 326.776 362.172C326.699 362.18 326.629 362.218 326.579 362.277C326.529 362.335 326.503 362.411 326.507 362.488C326.521 362.565 326.564 362.635 326.627 362.682C326.689 362.73 326.768 362.753 326.846 362.745C331.238 362.312 334.915 365.415 334.961 365.439C334.99 365.464 335.023 365.484 335.06 365.496C335.096 365.508 335.134 365.512 335.172 365.509Z" fill="#263238"/>
<path d="M386.709 150.651C386.709 150.651 388.15 162.747 388.618 170.066C389.568 182.897 388.458 195.797 385.328 208.276C382.986 218.71 374.484 253.946 373.793 257.635C375.737 265.457 377.142 271.886 375.175 289.311C372.154 316.104 364.425 345.016 364.425 345.016C362.294 348.354 345.583 347.862 340.513 343.599C340.513 343.599 338.908 265.434 338.171 249.086C337.538 234.882 340.946 187.912 340.946 187.912C340.946 187.912 318.205 180.523 314.481 155.698L386.709 150.651Z" fill="#263238"/>
<path d="M327.548 72.8015C319.585 75.4597 316.213 79.1836 308.66 89.3714C301.294 99.3134 290.579 113.846 290.579 113.846L251.479 109.49L255.425 129.221C255.425 129.221 283.729 136.318 292.956 137.512C299.865 138.414 303.496 134.678 308.039 129.315C316.131 119.642 326.459 105.368 326.459 105.368L327.548 72.8015Z" fill="#F0F0F0"/>
<path d="M367.171 66.9113C367.171 66.9113 343.821 65.9744 329.699 71.4782C326.56 72.6492 318.387 79.9213 316.595 100.438C314.393 125.532 314.253 158.11 314.253 158.11C314.874 160.253 322.052 172.162 343.599 175.5C365.848 178.931 378.554 177.362 389.573 168.766C389.573 149.269 389.631 147.922 389.69 132.816C389.69 123.062 392.641 104.278 394.292 96.1164C395.463 90.3785 394.292 80.8932 390.709 78.5512C386.938 76.1155 372.933 71.1035 372.933 71.1035C370.742 70.1214 368.78 68.6936 367.171 66.9113Z" fill="#FAFAFA"/>
<path d="M363.192 67.9064C364.843 67.9064 366.072 67.9064 366.705 67.9064C368.344 69.6565 370.304 71.0757 372.478 72.0869H372.536C372.677 72.0869 386.472 77.0755 390.102 79.4175C393.123 81.3731 394.364 90.2494 393.228 95.882C391.636 103.751 388.638 122.663 388.544 132.793C388.544 137.828 388.544 141.341 388.544 144.503C388.544 150.709 388.474 155.616 388.486 168.228C381.225 173.743 373.38 176.109 362.349 176.109C356.109 176.018 349.885 175.459 343.729 174.434C321.902 171.05 315.836 159.129 315.274 157.899C315.274 155.124 315.555 124.256 317.616 100.519C319.677 76.7827 329.958 72.4968 330.064 72.4148C340.603 68.2928 356.693 67.8596 363.133 67.8596M363.133 66.7939C355.849 66.7939 340.181 67.3209 329.677 71.478C326.539 72.649 318.365 79.9211 316.573 100.437C314.372 125.532 314.231 158.11 314.231 158.11C314.852 160.253 322.03 172.162 343.577 175.5C349.771 176.531 356.035 177.095 362.313 177.186C373.766 177.186 382.033 174.586 389.504 168.766C389.504 149.269 389.563 147.922 389.622 132.816C389.622 123.061 392.573 104.278 394.224 96.1162C395.395 90.3782 394.224 80.893 390.64 78.551C386.87 76.1152 372.864 71.1033 372.864 71.1033C370.699 70.1128 368.761 68.6856 367.173 66.911C367.173 66.911 365.674 66.8408 363.203 66.8408L363.133 66.7939Z" fill="#E0E0E0"/>
<path d="M373.097 19.5083C379.222 27.319 376.61 35.9026 373.706 44.533C370.357 54.3461 370.006 57.5664 364.127 59.7562C367.266 28.5134 354.408 62.754 330.73 36.9214C326.444 32.2373 326.514 20.0938 332.381 14.2387C340.684 5.9245 361.083 4.75348 373.097 19.5083Z" fill="#37474F"/>
<path d="M373.181 54.8379C368.497 56.4773 366.365 53.1399 366.365 53.1399L365.616 65.377C365.616 65.377 371.834 73.2229 365.241 75.1199C348.999 79.804 347.828 83.118 342.629 88.6335C340.217 83.9494 341.727 76.3729 341.61 73.5976L342.207 64.4871C340.34 64.5511 338.472 64.358 336.657 63.9133C331.973 62.5783 328.823 59.1004 327.827 52.6715C326.656 44.9076 327.827 32.6822 331.13 22.225C336.177 18.712 352.758 19.1804 362.747 26.1128C361.869 34.7432 364.129 36.2772 363.918 40.0011C363.672 44.1933 363.918 45.1653 365.148 45.8562C366.377 46.5471 367.654 44.6032 368.239 43.397C369.234 41.3829 370.066 40.0948 372.139 39.6966C374.211 39.2985 376.46 39.7786 378.169 42.6359C380.757 46.9921 376.542 53.6551 373.181 54.8379Z" fill="#FFA8A7"/>
<path d="M349.081 37.5655C349.058 37.9397 349.145 38.3126 349.332 38.6377C349.519 38.9627 349.798 39.2255 350.133 39.3931C350.468 39.5608 350.846 39.626 351.218 39.5805C351.59 39.535 351.941 39.3809 352.226 39.1373C352.511 38.8938 352.718 38.5717 352.821 38.2112C352.925 37.8507 352.919 37.4678 352.806 37.1102C352.693 36.7527 352.477 36.4364 352.186 36.2008C351.894 35.9652 351.539 35.8208 351.166 35.7855C350.912 35.7647 350.656 35.7943 350.414 35.8726C350.172 35.951 349.947 36.0765 349.753 36.2419C349.56 36.4073 349.401 36.6094 349.285 36.8366C349.17 37.0637 349.101 37.3114 349.081 37.5655Z" fill="#263238"/>
<path d="M348.262 49.5918L341.318 51.0087C341.394 51.4699 341.562 51.9113 341.811 52.3069C342.059 52.7025 342.385 53.0445 342.768 53.3128C343.15 53.5811 343.583 53.7703 344.04 53.8693C344.497 53.9683 344.969 53.9752 345.428 53.8894C346.364 53.6784 347.183 53.1129 347.711 52.3116C348.239 51.5103 348.437 50.5355 348.262 49.5918Z" fill="#B16668"/>
<path d="M347.477 51.1023C346.698 51.1026 345.945 51.3889 345.362 51.9068C344.78 52.4248 344.407 53.1385 344.315 53.9127C344.684 53.9718 345.059 53.9718 345.428 53.9127C346.084 53.7697 346.687 53.4478 347.17 52.9827C347.654 52.5176 347.999 51.9275 348.168 51.2779C347.945 51.1946 347.713 51.1357 347.477 51.1023Z" fill="#F28F8F"/>
<path d="M332.123 31.3473L337.31 28.7593C337.146 28.4225 336.916 28.1219 336.634 27.8753C336.352 27.6286 336.023 27.4408 335.668 27.323C335.312 27.2052 334.936 27.1597 334.563 27.1891C334.189 27.2186 333.825 27.3225 333.493 27.4946C332.815 27.8399 332.295 28.4316 332.041 29.1482C331.786 29.8647 331.815 30.6517 332.123 31.3473Z" fill="#263238"/>
<path d="M350.78 30.7383L355.382 34.3099C355.617 34.0162 355.792 33.6782 355.894 33.3159C355.996 32.9536 356.025 32.5744 355.978 32.2009C355.931 31.8273 355.81 31.467 355.621 31.1413C355.432 30.8157 355.179 30.5313 354.878 30.305C354.273 29.8311 353.506 29.6114 352.741 29.6922C351.977 29.7731 351.273 30.1482 350.78 30.7383Z" fill="#263238"/>
<path d="M333.049 35.7854C333.028 36.1611 333.118 36.5347 333.308 36.8598C333.497 37.185 333.778 37.4473 334.115 37.6142C334.452 37.7811 334.831 37.8453 335.205 37.7987C335.578 37.7521 335.929 37.5969 336.215 37.3523C336.501 37.1076 336.709 36.7844 336.813 36.4227C336.917 36.061 336.912 35.6768 336.799 35.3178C336.686 34.9587 336.471 34.6407 336.179 34.4033C335.887 34.1658 335.532 34.0193 335.157 33.982C334.64 33.9463 334.129 34.1153 333.734 34.4526C333.34 34.7898 333.094 35.2685 333.049 35.7854Z" fill="#263238"/>
<path d="M345.908 34.1226L342.7 46.9101L336.599 44.0645C338.683 39.7317 342.056 37.015 345.908 34.1226Z" fill="#F28F8F"/>
<path d="M342.207 64.487C347.383 64.487 354.644 63.316 357.794 60.81C360.596 58.6779 362.693 55.7526 363.813 52.4138C363.657 54.5946 363.069 56.7227 362.084 58.6746C361.099 60.6266 359.736 62.3634 358.075 63.7844C353.59 67.7893 341.997 68.1172 341.997 68.1172L342.207 64.487Z" fill="#F28F8F"/>
<path d="M382.399 74.7219C382.399 74.7219 379.518 87.4977 380.935 97.2406C382.352 106.983 388.09 111.902 392.259 116.785C396.427 121.668 403.231 128.062 411.323 128.495L412.845 103.26C409.627 98.2012 406.107 93.3405 402.306 88.7039C396.662 81.7832 396.041 79.3357 382.399 74.7219Z" fill="#F0F0F0"/>
<path opacity="0.1" d="M382.399 74.7219C382.399 74.7219 379.518 87.4977 380.935 97.2406C382.352 106.983 388.09 111.902 392.259 116.785C396.427 121.668 403.231 128.062 411.323 128.495L412.845 103.26C409.627 98.2012 406.107 93.3405 402.306 88.7039C396.662 81.7832 396.041 79.3357 382.399 74.7219Z" fill="black"/>
<path d="M342.581 88.6334C345.075 85.542 348.869 79.1131 351.071 77.6024C353.272 76.0918 364.14 70.9159 365.603 65.6112L365.814 62.508C367.313 61.9225 367.676 65.8337 372.946 71.115C372.862 75.4474 371.356 79.632 368.66 83.0243C367.232 85.0949 365.3 86.7674 363.046 87.8841C360.792 89.0007 358.291 89.5246 355.778 89.4063C355.778 89.4063 352.101 82.2865 351.094 81.9235C350.087 81.5605 345.813 86.35 342.581 88.6334Z" fill="#F0F0F0"/>
<path d="M342.584 88.6334C341.214 85.8815 341.413 75.518 341.413 75.518L341.952 67.801C341.952 67.801 339.61 67.6605 337.748 70.752C333.567 77.8952 333.497 82.7549 334.082 84.125C335.734 81.1038 338.989 79.6634 339.551 80.4949C340.113 81.3263 340.886 86.1392 342.584 88.6334Z" fill="#F0F0F0"/>
<path d="M395.279 69.5929C393.336 66.3664 392.062 62.7824 391.532 59.0537C391.052 54.7444 388.276 50.4584 387.363 48.7253C386.449 46.9922 384.353 44.3457 382.808 41.8749C381.262 39.404 380.805 38.7248 378.205 37.9168C374.692 36.8044 371.859 35.8558 370.371 36.09C368.884 36.3242 368.802 37.2611 369.88 38.7131C370.957 40.1652 373.51 40.7975 374.294 41.1488C375.079 41.5001 376.742 42.5189 376.742 42.5189L379.447 47.9407C377.09 48.026 374.742 48.2764 372.421 48.6902C371.25 49.1469 369.868 51.9222 370.137 53.5851C370.137 53.5851 367.795 54.7561 368.392 56.9108C368.392 56.9108 366.893 58.4097 367.584 59.8968C368.386 61.4139 369.357 62.8359 370.477 64.1359C371.097 64.8268 373.838 65.307 373.838 65.307C374.801 67.3307 376.029 69.217 377.491 70.9161C379.259 72.6375 380.559 72.7195 382.304 76.0569L395.279 69.5929Z" fill="#FFA8A7"/>
<path d="M376.858 48.1163C375.581 47.3551 375.405 46.3949 374.059 46.7111C372.712 47.0272 373.005 48.5496 373.005 48.5496L376.858 48.1163Z" fill="#F28F8F"/>
<path d="M370.171 53.7371C371.116 53.1308 372.135 52.6506 373.204 52.3085C374.2 51.9806 376.249 51.559 376.249 51.559C374.871 51.4879 373.489 51.6221 372.15 51.9572C371.463 52.1265 370.793 52.3578 370.148 52.6481C370.107 52.9629 370.107 53.2818 370.148 53.5966L370.171 53.7371Z" fill="#F28F8F"/>
<path d="M369.726 55.6929C369.249 55.8194 368.783 55.9838 368.333 56.1847C368.319 56.5037 368.351 56.8231 368.426 57.1332C369.316 56.173 372.326 55.3767 372.326 55.3767C371.45 55.3869 370.579 55.4929 369.726 55.6929Z" fill="#F28F8F"/>
<path d="M374.259 66.232C373.689 64.5373 372.956 62.9019 372.07 61.3489C371.778 60.913 371.33 60.6049 370.819 60.4874C370.308 60.3699 369.771 60.4518 369.318 60.7165C368.873 61.2083 370.746 61.3957 371.25 61.7002C372.481 63.046 373.497 64.5748 374.259 66.232Z" fill="#F28F8F"/>
<path d="M381.085 48.0227C381.085 48.0227 380.242 46.395 378.673 43.7954C377.104 41.1957 377.186 41.547 375.418 40.9381C373.649 40.3291 370.277 39.2986 369.516 38.0457C369.647 38.2826 369.796 38.5096 369.961 38.7248C370.991 40.1066 373.591 40.8093 374.375 41.1606C375.16 41.5119 376.823 42.5307 376.823 42.5307L379.61 48.1047L381.085 48.0227Z" fill="#F28F8F"/>
<path d="M395.278 69.5928C400.395 77.7899 414.506 97.7675 417.363 105.344C419.354 110.578 418.534 122.031 415.243 125.79C411.953 129.549 404.529 126.785 399.037 120.485C394.294 115.04 391.331 103.072 388.497 94.4535C385.664 85.8348 382.232 76.0919 382.232 76.0919L395.278 69.5928Z" fill="#FFA8A7"/>
<path d="M384.2 82.9542C384.2 82.9542 390.571 83.7154 394.739 81.3499C397.087 80.1474 398.951 78.1757 400.021 75.7642C400.021 75.7642 411.005 92.4512 414.073 97.5451C417.141 102.639 419.705 106.14 419.143 113.74C418.581 121.34 417.808 128.062 412.351 128.519C406.895 128.975 400.794 124.139 397.55 120.321C394.306 116.504 388.018 98.599 384.2 82.9542Z" fill="#F0F0F0"/>
<path d="M395.278 69.5928C394.107 67.5487 393.127 65.4004 392.351 63.1756C391.543 60.9507 391.566 58.4916 390.84 56.2901C389.23 51.8711 386.96 47.7215 384.107 43.9827C382.678 42.2027 381.87 39.685 379.739 38.6311C378.392 38.151 367.865 34.0407 369.586 37.8582C371.05 40.575 374.762 40.575 376.952 42.4369L379.645 47.8704C379.774 48.1515 379.821 48.0812 379.505 48.1046C377.381 48.1858 375.263 48.3734 373.158 48.6667C372.069 48.6667 371.436 49.6621 370.956 50.5755C370.425 51.5141 370.196 52.5936 370.3 53.667C369.672 53.9234 369.152 54.3913 368.831 54.9899C368.511 55.5885 368.409 56.2803 368.544 56.9458C368.173 57.2716 367.892 57.6871 367.728 58.1525C367.564 58.618 367.522 59.1178 367.607 59.604C368.011 60.5112 368.514 61.3712 369.106 62.1686C369.611 63.0135 370.261 63.7627 371.027 64.3818C371.946 64.7974 372.914 65.0964 373.907 65.2718C374.863 67.3886 376.147 69.341 377.713 71.0566C379.47 72.5204 381.39 73.9022 382.339 76.092C381.355 73.9022 379.434 72.5789 377.654 71.1386C376.082 69.4408 374.782 67.509 373.802 65.4123C372.826 65.2743 371.875 64.9942 370.98 64.5809C370.178 63.9504 369.495 63.1809 368.966 62.3091C367.666 60.5057 366.471 58.796 368.368 56.8287V56.9458C368.226 56.2425 368.326 55.5116 368.654 54.8731C368.982 54.2347 369.517 53.7268 370.172 53.4328L370.101 53.5733C370.054 52.7527 370.171 51.931 370.447 51.1566C370.722 50.3822 371.15 49.671 371.706 49.0649C372.094 48.6525 372.618 48.3946 373.181 48.3388C375.301 48.0296 377.435 47.8302 379.575 47.7416L379.434 47.9758L376.718 42.5657C374.739 41.0902 370.663 40.6101 369.364 37.987C367.49 33.3732 378.275 37.7411 379.903 38.3383C380.968 38.9298 381.835 39.8217 382.397 40.9029C385.571 45.8446 389.294 50.5404 391.074 56.2315C391.777 58.4916 391.718 60.9156 392.491 63.1405C393.22 65.3724 394.153 67.5323 395.278 69.5928Z" fill="#B16668"/>
<path d="M328.823 147.032C328.67 142.688 325.637 137.606 322.054 135.662C320.725 134.912 319.187 134.616 317.675 134.819C316.07 134.979 314.453 134.702 312.993 134.018C311.534 133.333 310.286 132.266 309.384 130.931C306.48 126.949 306.398 121.246 306.281 112.616C306.281 110.274 306.222 107.674 306.152 104.852C293.13 97.0649 279.535 89.2542 276.455 90.5658L276.314 90.636C274.651 91.5494 275.834 94.8283 277.392 97.4513C278.526 99.1004 279.223 101.01 279.417 103.002C279.57 106.749 275.366 107.464 270.049 104.63C264.733 101.796 260.388 96.4326 260.248 92.7087C260.203 92.0251 260.338 91.3417 260.637 90.7258C260.937 90.1098 261.392 89.5825 261.958 89.1957C263.433 88.1769 264.44 85.9754 262.473 83.1064C259.252 78.4223 249.065 73.5157 236.09 67.3093V67.403L236.172 69.6865C236.172 70.4242 236.172 71.1386 236.172 71.8529C236.558 82.7902 236.64 90.5892 233.537 91.5963C231.195 92.4043 227.588 89.383 225.223 86.5374C224.005 84.9681 222.504 83.6414 220.796 82.6262C220.18 82.2185 219.47 81.9725 218.733 81.9111C217.997 81.8498 217.256 81.9749 216.581 82.2749C215.269 82.9893 214.484 84.617 214.566 86.959C214.719 91.3152 217.74 96.4091 221.335 98.3296C222.668 99.0806 224.209 99.3804 225.726 99.1844C227.328 99.0213 228.944 99.2957 230.401 99.9783C231.859 100.661 233.105 101.726 234.005 103.061C237.518 107.745 237.694 114.993 238.092 126.891L238.186 129.725C250.025 136.751 261.243 142.981 264.475 141.575L264.604 141.517C266.267 140.627 265.084 137.325 263.527 134.725C262.408 133.06 261.712 131.146 261.501 129.151C261.384 125.415 265.564 124.701 270.869 127.547C276.174 130.392 280.553 135.744 280.67 139.456C280.711 140.139 280.576 140.821 280.276 141.436C279.977 142.052 279.524 142.58 278.961 142.969C277.497 143.988 276.478 146.189 278.469 149.046C281.408 153.297 292.135 158.942 304.559 165.441C305.73 166.073 306.983 166.705 308.236 167.349C308.119 164.785 308.002 162.314 307.861 159.902C307.346 150.206 306.971 143.215 309.77 142.255C312.112 141.446 315.719 144.479 318.084 147.313C319.321 148.902 320.852 150.237 322.593 151.248C323.207 151.662 323.917 151.912 324.655 151.973C325.393 152.035 326.134 151.906 326.809 151.599C328.12 151.037 328.905 149.374 328.823 147.032Z" fill="#34A573"/>
<path opacity="0.3" d="M328.823 147.032C328.67 142.688 325.637 137.606 322.054 135.662C320.725 134.912 319.187 134.616 317.675 134.819C316.07 134.979 314.453 134.702 312.993 134.018C311.534 133.333 310.286 132.266 309.384 130.931C306.48 126.949 306.398 121.246 306.281 112.616C306.281 110.274 306.222 107.674 306.152 104.852C293.13 97.0649 279.535 89.2542 276.455 90.5658L276.314 90.636C274.651 91.5494 275.834 94.8283 277.392 97.4513C278.526 99.1004 279.223 101.01 279.417 103.002C279.57 106.749 275.366 107.464 270.049 104.63C264.733 101.796 260.388 96.4326 260.248 92.7087C260.203 92.0251 260.338 91.3417 260.637 90.7258C260.937 90.1098 261.392 89.5825 261.958 89.1957C263.433 88.1769 264.44 85.9754 262.473 83.1064C259.252 78.4223 249.065 73.5157 236.09 67.3093V67.403L236.172 69.6865C236.172 70.4242 236.172 71.1386 236.172 71.8529C236.558 82.7902 236.64 90.5892 233.537 91.5963C231.195 92.4043 227.588 89.383 225.223 86.5374C224.005 84.9681 222.504 83.6414 220.796 82.6262C220.18 82.2185 219.47 81.9725 218.733 81.9111C217.997 81.8498 217.256 81.9749 216.581 82.2749C215.269 82.9893 214.484 84.617 214.566 86.959C214.719 91.3152 217.74 96.4091 221.335 98.3296C222.668 99.0806 224.209 99.3804 225.726 99.1844C227.328 99.0213 228.944 99.2957 230.401 99.9783C231.859 100.661 233.105 101.726 234.005 103.061C237.518 107.745 237.694 114.993 238.092 126.891L238.186 129.725C250.025 136.751 261.243 142.981 264.475 141.575L264.604 141.517C266.267 140.627 265.084 137.325 263.527 134.725C262.408 133.06 261.712 131.146 261.501 129.151C261.384 125.415 265.564 124.701 270.869 127.547C276.174 130.392 280.553 135.744 280.67 139.456C280.711 140.139 280.576 140.821 280.276 141.436C279.977 142.052 279.524 142.58 278.961 142.969C277.497 143.988 276.478 146.189 278.469 149.046C281.408 153.297 292.135 158.942 304.559 165.441C305.73 166.073 306.983 166.705 308.236 167.349C308.119 164.785 308.002 162.314 307.861 159.902C307.346 150.206 306.971 143.215 309.77 142.255C312.112 141.446 315.719 144.479 318.084 147.313C319.321 148.902 320.852 150.237 322.593 151.248C323.207 151.662 323.917 151.912 324.655 151.973C325.393 152.035 326.134 151.906 326.809 151.599C328.12 151.037 328.905 149.374 328.823 147.032Z" fill="white"/>
<path d="M228.877 107.733C227.108 105.262 227.272 104.934 228.221 103.681C228.942 102.678 229.891 101.86 230.991 101.296C232.091 100.732 233.309 100.438 234.544 100.438C236.722 100.508 238.912 100.438 240.025 101.035C241.137 101.632 240.2 103.974 237.366 104.548C232.917 105.543 232.94 106.749 232.94 106.749C234.838 106.316 236.757 105.98 238.69 105.742C240.891 105.895 243.077 106.228 245.224 106.738C247.109 107.03 247.484 109.454 244.299 110.251L247.742 110.801C250.142 111.187 250.962 112.476 249.077 113.963C248.458 114.471 247.687 114.759 246.887 114.782C246.887 114.782 249.463 114.782 249.51 115.637C249.662 118.085 248.081 118.729 242.894 120.228C240.939 120.66 239.211 121.793 238.034 123.413L238.151 126.668C238.151 126.668 235.914 125.005 234.146 123.788C232.846 122.886 231.734 121.879 232.319 119.853C232.319 119.853 229.497 119.853 229.322 118.155C229.286 116.871 229.521 115.594 230.012 114.408C229.504 114.121 229.088 113.696 228.813 113.182C228.537 112.667 228.413 112.086 228.455 111.504C228.443 110.396 228.801 109.316 229.474 108.436L228.877 107.733Z" fill="#FFA8A7"/>
<path d="M244.3 110.344C243.271 110.135 242.224 110.021 241.173 110.005C240.119 110.166 239.096 110.49 238.141 110.965C236.243 111.787 234.418 112.766 232.684 113.892C234.69 113.363 236.649 112.666 238.539 111.808C239.422 111.362 240.343 110.994 241.291 110.707C242.192 110.555 243.281 110.543 244.3 110.344Z" fill="#F28F8F"/>
<path d="M246.886 114.876C245.787 114.568 244.63 114.531 243.514 114.771C242.408 115.013 241.326 115.354 240.282 115.789C238.228 116.638 236.267 117.694 234.427 118.94C236.548 118.271 238.631 117.49 240.668 116.597C242.619 115.649 244.726 115.066 246.886 114.876Z" fill="#F28F8F"/>
<path d="M438.78 2.76278C431.858 5.57482 425.925 10.3769 421.733 16.5615C417.541 22.746 415.277 30.0351 415.229 37.5064C415.18 44.9777 417.349 52.2955 421.461 58.5339C425.572 64.7722 431.442 69.6509 438.327 72.5524C445.212 75.454 452.803 76.2481 460.14 74.8343C467.476 73.4204 474.228 69.8622 479.542 64.6098C484.856 59.3575 488.492 52.6469 489.991 45.3273C491.49 38.0078 490.784 30.4081 487.962 23.4898C484.173 14.2319 476.87 6.85261 467.652 2.96783C458.434 -0.916964 448.052 -0.990694 438.78 2.76278ZM440.056 5.91282C446.352 3.35031 453.267 2.71233 459.925 4.07956C466.584 5.44678 472.688 8.7578 477.465 13.5939C482.241 18.43 485.477 24.5741 486.762 31.2491C488.047 37.924 487.324 44.8302 484.684 51.0942C482.044 57.3582 477.606 62.6987 471.931 66.4405C466.256 70.1822 459.599 72.157 452.801 72.1153C446.004 72.0736 439.372 70.0171 433.743 66.206C428.114 62.3949 423.742 57.0002 421.179 50.7043C417.749 42.2608 417.81 32.801 421.35 24.4027C424.889 16.0043 431.617 9.35419 440.056 5.91282Z" fill="#455A64"/>
<path d="M440.055 5.91272C433.759 8.47641 428.365 12.8495 424.555 18.479C420.744 24.1085 418.689 30.7415 418.648 37.5392C418.608 44.337 420.584 50.994 424.327 56.6686C428.07 62.3431 433.411 66.7803 439.676 69.4189C445.941 72.0575 452.848 72.7791 459.523 71.4923C466.198 70.2055 472.341 66.9683 477.176 62.1899C482.011 57.4115 485.321 51.3066 486.686 44.6473C488.051 37.988 487.411 31.0733 484.846 24.7778C481.4 16.343 474.749 9.61971 466.352 6.083C457.955 2.54629 448.497 2.48505 440.055 5.91272Z" fill="white"/>
<path d="M409.176 57.8006L422.561 57.5781L417.374 44.8257L407.631 54.0182C407.309 54.3216 407.087 54.7153 406.993 55.1476C406.899 55.5798 406.939 56.0302 407.106 56.4396C407.273 56.849 407.561 57.1981 407.93 57.441C408.3 57.6839 408.734 57.8093 409.176 57.8006Z" fill="#455A64"/>
<path d="M458.184 52.2967H447.844C447.742 52.2983 447.641 52.2794 447.547 52.2411C447.452 52.2028 447.366 52.146 447.294 52.0739C447.222 52.0018 447.165 51.916 447.127 51.8215C447.089 51.727 447.07 51.6258 447.071 51.5238C447.07 51.4214 447.089 51.3196 447.127 51.2245C447.165 51.1294 447.222 51.0428 447.294 50.9698C447.365 50.8967 447.451 50.8388 447.546 50.7992C447.64 50.7596 447.742 50.7392 447.844 50.7393H458.184C458.287 50.7392 458.388 50.7596 458.483 50.7992C458.577 50.8388 458.663 50.8967 458.735 50.9698C458.807 51.0428 458.864 51.1294 458.902 51.2245C458.94 51.3196 458.959 51.4214 458.957 51.5238C458.959 51.6258 458.94 51.727 458.902 51.8215C458.863 51.916 458.806 52.0018 458.734 52.0739C458.662 52.146 458.576 52.2028 458.482 52.2411C458.387 52.2794 458.286 52.2983 458.184 52.2967Z" fill="#455A64"/>
<path d="M453.02 60.3768C451.442 60.3768 449.929 59.75 448.814 58.6344C447.698 57.5188 447.071 56.0057 447.071 54.428C447.07 54.3261 447.089 54.2248 447.127 54.1304C447.165 54.0359 447.222 53.9501 447.294 53.878C447.366 53.8059 447.452 53.749 447.547 53.7107C447.641 53.6724 447.742 53.6535 447.844 53.6551H458.184C458.286 53.6535 458.387 53.6724 458.482 53.7107C458.576 53.749 458.662 53.8059 458.734 53.878C458.806 53.9501 458.863 54.0359 458.902 54.1304C458.94 54.2248 458.959 54.3261 458.957 54.428C458.957 56.0037 458.332 57.515 457.219 58.6303C456.106 59.7455 454.596 60.3737 453.02 60.3768Z" fill="#455A64"/>
<path d="M464.062 19.5434C462.495 18.0418 460.637 16.8765 458.603 16.1193C456.569 15.3621 454.402 15.029 452.235 15.1403C448.192 15.3873 444.387 17.1382 441.57 20.0486C438.753 22.959 437.127 26.8182 437.011 30.8671C436.966 33.6956 437.669 36.4858 439.052 38.9541C440.434 41.4223 442.445 43.4805 444.881 44.9193C445.525 45.2884 446.06 45.8201 446.434 46.4613C446.809 47.1025 447.008 47.8306 447.012 48.5729C447.009 48.6651 447.024 48.7569 447.058 48.8428C447.091 48.9287 447.142 49.0069 447.206 49.0727C447.271 49.1384 447.348 49.1903 447.434 49.2252C447.519 49.26 447.611 49.2772 447.703 49.2755H458.324C458.51 49.2755 458.689 49.2015 458.821 49.0697C458.952 48.938 459.027 48.7593 459.027 48.5729C459.034 47.8356 459.232 47.1128 459.601 46.4746C459.971 45.8365 460.499 45.3047 461.134 44.9311C463.542 43.5125 465.538 41.491 466.926 39.0659C468.314 36.6407 469.047 33.8957 469.05 31.1013C469.051 28.9365 468.608 26.7945 467.75 24.8069C466.893 22.8193 465.637 21.0281 464.062 19.5434Z" fill="#34A573"/>
<g opacity="0.35">
<path d="M464.061 19.5434C462.494 18.0418 460.637 16.8765 458.603 16.1193C456.569 15.3621 454.402 15.029 452.234 15.1403C448.191 15.3873 444.387 17.1382 441.57 20.0486C438.752 22.959 437.126 26.8182 437.011 30.8671C436.965 33.6956 437.669 36.4858 439.051 38.9541C440.433 41.4223 442.444 43.4805 444.88 44.9193C445.524 45.2884 446.06 45.8201 446.434 46.4613C446.808 47.1025 447.007 47.8306 447.011 48.5729C447.008 48.6651 447.024 48.7569 447.057 48.8428C447.091 48.9287 447.141 49.0069 447.206 49.0727C447.271 49.1384 447.348 49.1903 447.433 49.2252C447.519 49.26 447.61 49.2772 447.702 49.2755H458.323C458.51 49.2755 458.688 49.2015 458.82 49.0697C458.952 48.938 459.026 48.7593 459.026 48.5729C459.033 47.8356 459.231 47.1128 459.601 46.4746C459.97 45.8365 460.498 45.3047 461.134 44.9311C463.541 43.5125 465.538 41.491 466.926 39.0659C468.314 36.6407 469.046 33.8957 469.05 31.1013C469.05 28.9365 468.608 26.7945 467.75 24.8069C466.892 22.8193 465.637 21.0281 464.061 19.5434Z" fill="white"/>
</g>
<path d="M461.873 34.4152C461.77 34.0893 461.564 33.8061 461.284 33.6093C461.005 33.4125 460.669 33.313 460.327 33.3262C459.743 33.3977 459.184 33.6015 458.69 33.9222C458.197 34.2428 457.784 34.6718 457.482 35.1764L457.365 35.3403H457.166C456.321 35.0492 455.53 34.622 454.823 34.0756C454.428 33.7811 454.063 33.4476 453.734 33.0803L453.57 32.928L453.699 32.729C454.161 32.1864 454.492 31.5459 454.669 30.8559C454.845 30.166 454.862 29.4449 454.718 28.7475C454.596 28.3989 454.369 28.0968 454.068 27.883C453.767 27.6693 453.407 27.5544 453.038 27.5544C452.668 27.5544 452.308 27.6693 452.007 27.883C451.706 28.0968 451.479 28.3989 451.357 28.7475C451.22 29.4451 451.24 30.1646 451.417 30.8534C451.593 31.5422 451.921 32.1829 452.376 32.729L452.505 32.928L452.341 33.0803C452.012 33.4476 451.647 33.7811 451.252 34.0756C450.545 34.622 449.754 35.0492 448.91 35.3403H448.711L448.594 35.1764C448.291 34.6718 447.878 34.2428 447.385 33.9222C446.892 33.6015 446.332 33.3977 445.748 33.3262C445.407 33.313 445.07 33.4125 444.791 33.6093C444.512 33.8061 444.305 34.0893 444.202 34.4152C444.113 34.6883 444.119 34.984 444.222 35.2527C444.324 35.5213 444.516 35.7466 444.764 35.8907C445.405 36.2793 446.147 36.4669 446.896 36.4294C447.312 36.4277 447.727 36.3925 448.137 36.324H448.336L448.43 36.5114C448.79 37.1734 449.087 37.8673 449.32 38.5841C450.119 41.5666 450.424 44.6602 450.221 47.7414C450.221 48.2684 450.221 48.7836 450.221 49.2872H451.053V47.6712C451.26 44.5182 450.943 41.3526 450.116 38.303C449.901 37.6356 449.635 36.9857 449.32 36.3591L449.179 36.0781L449.484 35.961C450.323 35.6529 451.112 35.2228 451.826 34.6846C452.209 34.3889 452.573 34.0681 452.915 33.7243L453.114 33.5136L453.325 33.7243C453.666 34.0685 454.029 34.3893 454.414 34.6846C455.126 35.2253 455.915 35.6556 456.756 35.961L457.06 36.0781L456.92 36.3591C456.605 36.9857 456.339 37.6356 456.123 38.303C455.297 41.3528 454.98 44.5182 455.186 47.6712C455.186 48.1981 455.186 48.7134 455.186 49.2286H456.006C456.006 48.7251 456.006 48.2098 456.006 47.636C455.805 44.5703 456.109 41.4923 456.908 38.5255C457.14 37.8087 457.438 37.1149 457.798 36.4528L457.892 36.2654H458.091C458.501 36.3344 458.916 36.3697 459.332 36.3708C460.08 36.4084 460.823 36.2208 461.463 35.8322C461.673 35.6697 461.825 35.445 461.899 35.1904C461.972 34.9358 461.963 34.6644 461.873 34.4152ZM447.247 35.5863H446.884C446.293 35.6189 445.705 35.485 445.186 35.1998C445.091 35.1459 445.016 35.0641 444.97 34.9655C444.924 34.867 444.909 34.7566 444.928 34.6494C444.978 34.487 445.082 34.3463 445.223 34.2506C445.363 34.1548 445.532 34.1097 445.701 34.1225C446.385 34.212 447.007 34.565 447.434 35.1061L447.844 35.5394L447.247 35.5863ZM453.008 32.1903L452.774 31.7922C452.475 31.3859 452.262 30.9232 452.147 30.432C452.032 29.9409 452.019 29.4315 452.107 28.9349C452.163 28.7435 452.283 28.5772 452.447 28.4642C452.611 28.3511 452.81 28.2981 453.008 28.3142C453.209 28.2976 453.409 28.3501 453.575 28.463C453.741 28.576 453.864 28.7425 453.922 28.9349C454.01 29.4315 453.996 29.9409 453.881 30.432C453.767 30.9232 453.553 31.3859 453.254 31.7922L453.008 32.1903ZM460.854 35.2232C460.331 35.5082 459.739 35.642 459.145 35.6097H458.793H458.196L458.606 35.1764C459.033 34.6352 459.655 34.2823 460.339 34.1927C460.508 34.182 460.676 34.228 460.816 34.3235C460.956 34.4189 461.06 34.5584 461.112 34.7197C461.194 34.9773 460.924 35.153 460.854 35.2232Z" fill="#FAFAFA"/>
</svg>
