<svg xmlns="http://www.w3.org/2000/svg" width="24" height="25" viewBox="0 0 24 25" fill="none">
  <path d="M2 12.5C2 18.023 6.477 22.5 12 22.5C17.523 22.5 22 18.023 22 12.5C22 6.977 17.523 2.5 12 2.5C6.477 2.5 2 6.977 2 12.5Z" stroke="white" stroke-width="1.25" stroke-linecap="round" stroke-linejoin="round"/>
  <path d="M12.9999 2.5498C12.9999 2.5498 15.9999 6.4998 15.9999 12.4998C15.9999 18.4998 12.9999 22.4498 12.9999 22.4498M10.9999 22.4498C10.9999 22.4498 7.99988 18.4998 7.99988 12.4998C7.99988 6.4998 10.9999 2.5498 10.9999 2.5498M2.62988 15.9998H21.3699M2.62988 8.9998H21.3699" stroke="white" stroke-width="1.25" stroke-linecap="round" stroke-linejoin="round"/>
</svg>