<svg xmlns="http://www.w3.org/2000/svg" width="56" height="56" viewBox="0 0 56 56" fill="none">
  <path opacity="0.5" fill-rule="evenodd" clip-rule="evenodd" d="M51.3332 19.3514C51.3332 27.4616 44.7316 34.0361 36.5882 34.0361C35.1023 34.0361 31.719 33.6946 30.0731 32.3286L28.0155 34.3777C26.8059 35.5824 27.1325 35.9371 27.6706 36.5214C27.8952 36.7652 28.1565 37.049 28.3584 37.4512C28.3584 37.4512 30.073 39.8417 28.3584 42.2322C27.3297 43.5982 24.4493 45.5107 21.1574 42.2322L20.4716 42.9152C20.4716 42.9152 22.5291 45.3058 20.8145 47.6963C19.7858 49.0623 17.0426 50.4283 14.6422 48.0378L12.2419 50.4283C10.596 52.0675 8.5843 51.1113 7.78421 50.4283L5.72678 48.3793C3.80651 46.4669 4.92667 44.3951 5.72678 43.5982L23.5579 25.84C23.5579 25.84 21.8433 23.108 21.8433 19.3514C21.8433 11.2413 28.4449 4.66675 36.5882 4.66675C44.7316 4.66675 51.3332 11.2413 51.3332 19.3514Z" fill="#5E6DE2"/>
  <path d="M41.7325 19.3516C41.7325 22.1807 39.4296 24.4741 36.5889 24.4741C33.7482 24.4741 31.4453 22.1807 31.4453 19.3516C31.4453 16.5225 33.7482 14.229 36.5889 14.229C39.4296 14.229 41.7325 16.5225 41.7325 19.3516Z" fill="#5E6DE2"/>
</svg>