<svg xmlns="http://www.w3.org/2000/svg" width="56" height="56" viewBox="0 0 56 56" fill="none">
  <path d="M7.68342 21.6834C7 22.3668 7 23.4668 7 25.6667V39.6667C7 41.8666 7 42.9665 7.68342 43.6499C8.36683 44.3333 9.46678 44.3333 11.6667 44.3333C13.8666 44.3333 14.9665 44.3333 15.6499 43.6499C16.3333 42.9665 16.3333 41.8666 16.3333 39.6667V25.6667C16.3333 23.4668 16.3333 22.3668 15.6499 21.6834C14.9665 21 13.8666 21 11.6667 21C9.46678 21 8.36683 21 7.68342 21.6834Z" fill="#5E6DE2"/>
  <path opacity="0.4" d="M40.3499 5.35017C39.6665 6.03358 39.6665 7.13353 39.6665 9.33341V39.6668C39.6665 41.8666 39.6665 42.9666 40.3499 43.65C41.0333 44.3334 42.1333 44.3334 44.3332 44.3334C46.5331 44.3334 47.633 44.3334 48.3164 43.65C48.9998 42.9666 48.9998 41.8666 48.9998 39.6668V9.33342C48.9998 7.13353 48.9998 6.03358 48.3164 5.35017C47.633 4.66675 46.5331 4.66675 44.3332 4.66675C42.1333 4.66675 41.0333 4.66675 40.3499 5.35017Z" fill="#5E6DE2"/>
  <path opacity="0.7" d="M23.3335 16.3334C23.3335 14.1335 23.3335 13.0336 24.0169 12.3502C24.7003 11.6667 25.8003 11.6667 28.0002 11.6667C30.2001 11.6667 31.3 11.6667 31.9834 12.3502C32.6668 13.0336 32.6668 14.1335 32.6668 16.3334V39.6667C32.6668 41.8666 32.6668 42.9666 31.9834 43.65C31.3 44.3334 30.2001 44.3334 28.0002 44.3334C25.8003 44.3334 24.7003 44.3334 24.0169 43.65C23.3335 42.9666 23.3335 41.8666 23.3335 39.6667V16.3334Z" fill="#5E6DE2"/>
  <path d="M7 49.5833C6.0335 49.5833 5.25 50.3668 5.25 51.3333C5.25 52.2997 6.0335 53.0833 7 53.0833H49C49.9665 53.0833 50.75 52.2997 50.75 51.3333C50.75 50.3668 49.9665 49.5833 49 49.5833H7Z" fill="#5E6DE2"/>
</svg>