<svg xmlns="http://www.w3.org/2000/svg" width="191" height="29" viewBox="0 0 191 29" fill="none">
  <g clip-path="url(#clip0_10_424)">
    <path d="M45.6816 13.4153V10.8946H48.2068V9.79856C48.2068 8.5272 48.5769 7.54811 49.317 6.86129C50.0571 6.17447 51.1238 5.83105 52.517 5.83105C52.8217 5.83105 53.1337 5.84933 53.453 5.88586C53.7723 5.92239 54.048 5.96988 54.2802 6.02834V8.54912C54.0045 8.49067 53.7614 8.44683 53.551 8.4176C53.3405 8.38837 53.1192 8.37377 52.887 8.37377C52.3211 8.37377 51.8966 8.49798 51.6136 8.7464C51.3306 8.99483 51.1891 9.36747 51.1891 9.86432V10.8946H54.2802V13.4153H51.1891V22.3148H48.2068V13.4153H45.6816ZM57.3278 9.53551C56.8634 9.53551 56.4643 9.36747 56.1305 9.03136C55.7968 8.69526 55.6299 8.29339 55.6299 7.82576C55.6299 7.35814 55.7968 6.95628 56.1305 6.62017C56.4643 6.28407 56.8634 6.11601 57.3278 6.11601C57.7922 6.11601 58.1913 6.28407 58.5251 6.62017C58.8589 6.95628 59.0258 7.35814 59.0258 7.82576C59.0258 8.29339 58.8589 8.69526 58.5251 9.03136C58.1913 9.36747 57.7922 9.53551 57.3278 9.53551ZM55.8476 10.8946H58.8299V22.3148H55.8476V10.8946ZM64.1414 22.3148H61.1591V10.8946H64.1414V11.7933C64.5767 11.4279 65.0593 11.1503 65.589 10.9603C66.1187 10.7703 66.6956 10.6754 67.3196 10.6754C68.6257 10.6754 69.6996 11.0991 70.5413 11.9467C71.383 12.7943 71.8039 13.883 71.8039 15.2128V22.3148H68.8216V15.6512C68.8216 14.9351 68.6076 14.3579 68.1794 13.9195C67.7513 13.4811 67.1817 13.2619 66.4706 13.2619C65.9772 13.2619 65.5309 13.3605 65.1318 13.5578C64.7328 13.7551 64.4026 14.0364 64.1414 14.4017V22.3148ZM77.6596 22.5121C76.4406 22.5121 75.4465 22.1869 74.6774 21.5367C73.9082 20.8864 73.5236 20.0424 73.5236 19.0049C73.5236 17.9235 73.9372 17.076 74.7644 16.4622C75.5916 15.8484 76.7309 15.5416 78.1821 15.5416C78.6465 15.5416 79.1109 15.5781 79.5753 15.6512C80.0397 15.7242 80.4968 15.8338 80.9467 15.98V15.1689C80.9467 14.5113 80.7435 14.0145 80.3372 13.6784C79.9308 13.3423 79.3358 13.1742 78.5522 13.1742C78.0732 13.1742 77.5544 13.2509 76.9957 13.4044C76.437 13.5578 75.8021 13.7953 75.091 14.1168L74.0025 11.9029C74.8878 11.4937 75.7476 11.1868 76.5821 10.9822C77.4166 10.7776 78.2401 10.6754 79.0528 10.6754C80.5766 10.6754 81.763 11.0443 82.612 11.7823C83.461 12.5203 83.8855 13.5615 83.8855 14.9059V22.3148H80.9467V21.5257C80.4678 21.8618 79.9635 22.1102 79.4338 22.271C78.9041 22.4317 78.3127 22.5121 77.6596 22.5121ZM76.3753 18.9391C76.3753 19.3775 76.564 19.7246 76.9413 19.9803C77.3186 20.2361 77.8193 20.3639 78.4433 20.3639C78.9367 20.3639 79.3903 20.3018 79.8039 20.1776C80.2175 20.0534 80.5984 19.8744 80.9467 19.6406V17.9308C80.5839 17.7847 80.2029 17.6788 79.8039 17.613C79.4048 17.5472 78.9875 17.5144 78.5522 17.5144C77.8701 17.5144 77.3368 17.6422 76.9522 17.898C76.5676 18.1537 76.3753 18.5007 76.3753 18.9391ZM89.1317 22.3148H86.1494V10.8946H89.1317V11.7933C89.5671 11.4279 90.0496 11.1503 90.5793 10.9603C91.109 10.7703 91.6859 10.6754 92.3099 10.6754C93.616 10.6754 94.6899 11.0991 95.5316 11.9467C96.3734 12.7943 96.7942 13.883 96.7942 15.2128V22.3148H93.8119V15.6512C93.8119 14.9351 93.5979 14.3579 93.1698 13.9195C92.7416 13.4811 92.172 13.2619 91.4609 13.2619C90.9675 13.2619 90.5212 13.3605 90.1221 13.5578C89.7231 13.7551 89.3929 14.0364 89.1317 14.4017V22.3148ZM104.609 19.9036C105.117 19.9036 105.592 19.8013 106.035 19.5967C106.478 19.3922 106.902 19.0707 107.308 18.6323L109.093 20.4955C108.513 21.1384 107.816 21.6389 107.004 21.997C106.191 22.355 105.349 22.534 104.479 22.534C103.651 22.534 102.871 22.3806 102.138 22.0737C101.406 21.7668 100.774 21.3503 100.245 20.8243C99.7148 20.2982 99.2976 19.6735 98.9928 18.9501C98.6881 18.2267 98.5357 17.4486 98.5357 16.6156C98.5357 15.7827 98.6881 15.0045 98.9928 14.2812C99.2976 13.5578 99.7148 12.9295 100.245 12.3961C100.774 11.8627 101.406 11.4425 102.138 11.1357C102.871 10.8288 103.651 10.6754 104.479 10.6754C105.378 10.6754 106.242 10.8544 107.069 11.2124C107.896 11.5704 108.6 12.0709 109.181 12.7139L107.352 14.6648C106.946 14.2118 106.51 13.8683 106.046 13.6345C105.581 13.4007 105.081 13.2838 104.544 13.2838C103.688 13.2838 102.966 13.6053 102.378 14.2483C101.79 14.8913 101.496 15.6804 101.496 16.6156C101.496 17.5509 101.797 18.3327 102.4 18.9611C103.002 19.5894 103.738 19.9036 104.609 19.9036ZM118.41 19.0926L120.37 20.89C119.673 21.4599 118.958 21.8764 118.225 22.1395C117.492 22.4025 116.676 22.534 115.776 22.534C114.92 22.534 114.118 22.3806 113.371 22.0737C112.624 21.7668 111.978 21.3503 111.434 20.8243C110.889 20.2982 110.461 19.6735 110.149 18.9501C109.837 18.2267 109.681 17.4486 109.681 16.6156C109.681 15.7973 109.83 15.0264 110.127 14.3031C110.425 13.5797 110.835 12.9514 111.357 12.418C111.88 11.8846 112.5 11.4645 113.219 11.1576C113.937 10.8507 114.702 10.6973 115.515 10.6973C116.313 10.6973 117.057 10.8544 117.746 11.1685C118.436 11.4827 119.031 11.9102 119.531 12.4509C120.032 12.9916 120.424 13.6382 120.707 14.3908C120.99 15.1434 121.131 15.958 121.131 16.8348V17.624H112.685C112.888 18.34 113.28 18.9172 113.861 19.3556C114.441 19.794 115.123 20.0132 115.907 20.0132C116.4 20.0132 116.865 19.9329 117.3 19.7721C117.736 19.6114 118.106 19.3849 118.41 19.0926ZM115.45 13.1742C114.768 13.1742 114.18 13.3825 113.687 13.7989C113.193 14.2154 112.852 14.7744 112.663 15.4758H118.214C118.026 14.8036 117.681 14.2519 117.18 13.8209C116.68 13.3898 116.103 13.1742 115.45 13.1742Z" fill="white"/>
    <path d="M130.731 19.0922L132.69 20.8896C131.994 21.4596 131.279 21.876 130.546 22.1391C129.813 22.4021 128.997 22.5336 128.097 22.5336C127.241 22.5336 126.439 22.3802 125.692 22.0733C124.944 21.7664 124.299 21.35 123.754 20.8239C123.21 20.2978 122.782 19.6731 122.47 18.9497C122.158 18.2264 122.002 17.4482 122.002 16.6153C122.002 15.7969 122.151 15.0261 122.448 14.3027C122.746 13.5794 123.156 12.951 123.678 12.4176C124.201 11.8842 124.821 11.4641 125.539 11.1572C126.258 10.8503 127.023 10.6969 127.836 10.6969C128.634 10.6969 129.378 10.854 130.067 11.1682C130.757 11.4824 131.352 11.9098 131.852 12.4505C132.353 12.9912 132.745 13.6378 133.028 14.3904C133.311 15.143 133.452 15.9577 133.452 16.8345V17.6236H125.006C125.209 18.3396 125.601 18.9169 126.182 19.3553C126.762 19.7936 127.444 20.0128 128.228 20.0128C128.721 20.0128 129.186 19.9325 129.621 19.7717C130.056 19.611 130.426 19.3845 130.731 19.0922ZM127.771 13.1739C127.089 13.1739 126.501 13.3821 126.007 13.7986C125.514 14.215 125.173 14.774 124.984 15.4754H130.535C130.347 14.8032 130.002 14.2516 129.501 13.8205C129.001 13.3894 128.424 13.1739 127.771 13.1739ZM136.543 22.3144H133.213L137.566 16.5057L133.322 10.8942H136.783L139.286 14.2918L141.768 10.8942H145.12L140.941 16.4618L145.381 22.3144H141.898L139.221 18.6757L136.543 22.3144ZM149.496 26.8957H146.513V10.8942H149.452V11.8367C149.902 11.4714 150.403 11.1974 150.954 11.0147C151.506 10.8321 152.079 10.7407 152.674 10.7407C153.472 10.7407 154.223 10.8942 154.927 11.2011C155.631 11.5079 156.244 11.9244 156.766 12.4505C157.289 12.9766 157.699 13.5976 157.996 14.3137C158.294 15.0297 158.443 15.7969 158.443 16.6153C158.443 17.4336 158.29 18.2008 157.985 18.9169C157.681 19.6329 157.267 20.254 156.745 20.78C156.222 21.3061 155.602 21.719 154.883 22.0185C154.165 22.3181 153.399 22.4679 152.587 22.4679C152.035 22.4679 151.495 22.3912 150.965 22.2377C150.435 22.0843 149.946 21.8614 149.496 21.5692V26.8957ZM152.195 13.3054C151.658 13.3054 151.157 13.3967 150.693 13.5794C150.229 13.762 149.829 14.0287 149.496 14.3794V18.873C149.815 19.1945 150.21 19.4502 150.682 19.6402C151.154 19.8302 151.658 19.9252 152.195 19.9252C153.124 19.9252 153.907 19.6073 154.546 18.9717C155.184 18.336 155.504 17.5505 155.504 16.6153C155.504 15.68 155.181 14.8946 154.535 14.2589C153.889 13.6232 153.109 13.3054 152.195 13.3054ZM168.565 19.0922L170.524 20.8896C169.827 21.4596 169.113 21.876 168.38 22.1391C167.647 22.4021 166.831 22.5336 165.931 22.5336C165.075 22.5336 164.273 22.3802 163.525 22.0733C162.778 21.7664 162.132 21.35 161.588 20.8239C161.044 20.2978 160.616 19.6731 160.304 18.9497C159.992 18.2264 159.836 17.4482 159.836 16.6153C159.836 15.7969 159.984 15.0261 160.282 14.3027C160.579 13.5794 160.989 12.951 161.512 12.4176C162.034 11.8842 162.655 11.4641 163.373 11.1572C164.091 10.8503 164.857 10.6969 165.67 10.6969C166.468 10.6969 167.212 10.854 167.901 11.1682C168.59 11.4824 169.185 11.9098 169.686 12.4505C170.187 12.9912 170.578 13.6378 170.861 14.3904C171.144 15.143 171.286 15.9577 171.286 16.8345V17.6236H162.84C163.043 18.3396 163.435 18.9169 164.015 19.3553C164.596 19.7936 165.278 20.0128 166.062 20.0128C166.555 20.0128 167.019 19.9325 167.455 19.7717C167.89 19.611 168.26 19.3845 168.565 19.0922ZM165.604 13.1739C164.922 13.1739 164.335 13.3821 163.841 13.7986C163.348 14.215 163.007 14.774 162.818 15.4754H168.369C168.18 14.8032 167.836 14.2516 167.335 13.8205C166.834 13.3894 166.257 13.1739 165.604 13.1739ZM176.097 22.3144H173.115V10.8942H176.097V12.1436C176.46 11.6468 176.899 11.2705 177.414 11.0147C177.929 10.759 178.499 10.6311 179.123 10.6311C179.413 10.6458 179.656 10.6713 179.852 10.7079C180.048 10.7444 180.218 10.8065 180.363 10.8942V13.5246C180.146 13.4223 179.906 13.3456 179.645 13.2944C179.384 13.2433 179.115 13.2177 178.84 13.2177C178.259 13.2177 177.726 13.3638 177.24 13.6561C176.753 13.9483 176.373 14.3721 176.097 14.9274V22.3144ZM183.694 19.0922V13.415H181.365V10.8942H183.694V7.97883L186.676 7.29932V10.8942H189.898V13.415H186.676V18.4785C186.676 19.0191 186.792 19.3991 187.025 19.6183C187.257 19.8375 187.663 19.9471 188.244 19.9471C188.519 19.9471 188.781 19.9288 189.027 19.8923C189.274 19.8558 189.543 19.7863 189.833 19.6841V22.1391C189.514 22.2414 189.129 22.3254 188.679 22.3912C188.229 22.4569 187.845 22.4898 187.525 22.4898C186.263 22.4898 185.309 22.2012 184.663 21.624C184.017 21.0467 183.694 20.2028 183.694 19.0922Z" fill="#34A573"/>
    <path d="M26.9229 28.0243L26.96 20.6416L31.555 20.665L32.6725 28.0536L26.9229 28.0243Z" fill="url(#paint0_linear_10_424)"/>
    <path d="M34.7066 14.8101L39.7877 14.8362L39.3261 15.6942L37.7657 18.5934H37.7642L37.3781 19.3103L32.6724 28.0533L31.5547 20.6657L32.6845 18.5672L34.2449 15.6683L34.7066 14.8101Z" fill="url(#paint1_linear_10_424)"/>
    <path d="M25.7217 9.21795L25.7607 1.50977L32.8064 1.54569L32.7674 9.25419L25.7217 9.21795Z" fill="url(#paint2_linear_10_424)"/>
    <path d="M32.8066 1.54541L37.7115 10.8836L38.4235 12.2381L39.2422 13.7986L39.7876 14.8362L39.326 15.6941L37.7641 18.5933L37.378 19.3103L36.9502 18.589L35.2183 15.6731L34.7065 14.81L34.0909 13.7721L32.3609 10.8562L31.4131 9.2603L31.4149 9.24721L32.8066 1.54541Z" fill="url(#paint3_linear_10_424)"/>
    <path d="M12.8642 1.5603L12.827 8.94303L8.23201 8.91959L7.11426 1.53076L12.8642 1.5603Z" fill="url(#paint4_linear_10_424)"/>
    <path d="M7.11529 1.53027L8.23305 8.9194L7.25981 10.7275L5.69792 13.6267L5.07933 14.7732V14.7751L0 14.7489L0.618589 13.6008L1.34572 12.2488L2.17867 10.7013L2.40815 10.2751L7.11529 1.53027Z" fill="url(#paint5_linear_10_424)"/>
    <path d="M14.0652 20.3665L14.0262 28.075L6.98047 28.0388L7.01947 20.3306L14.0652 20.3665Z" fill="url(#paint6_linear_10_424)"/>
    <path d="M2.40815 10.2749L2.66393 10.7039L4.39422 13.6198L5.07933 14.773V14.7749L5.52347 15.5208L7.25528 18.4367L8.37455 20.3227L8.37122 20.3376L6.98105 28.0382L1.92259 18.4093L1.36416 17.3468L0.391531 15.4943L0 14.7487L0.618589 13.6006L1.13136 12.6453L2.17716 10.7011H2.17867L2.40815 10.2749Z" fill="url(#paint7_linear_10_424)"/>
    <path d="M12.4184 20.3587L13.7548 18.4702L20.7996 18.5064L14.0263 28.0745L6.98145 28.0385L12.4184 20.3587Z" fill="url(#paint8_linear_10_424)"/>
    <path d="M15.8047 15.5737L17.141 13.6855L24.1874 13.7218L22.8498 15.6099L15.8047 15.5737Z" fill="url(#paint9_linear_10_424)"/>
    <path d="M25.7604 1.50928L32.807 1.5455L27.3682 9.2266L26.2378 10.8249L19.1914 10.7887L25.7604 1.50928Z" fill="url(#paint10_linear_10_424)"/>
    <path d="M7.26014 10.7275L32.3617 10.8563L34.0917 13.7723L5.69824 13.6268L7.26014 10.7275Z" fill="url(#paint11_linear_10_424)"/>
    <path d="M5.52344 15.521L34.2452 15.6683L32.6848 18.5673L7.25525 18.4369L5.52344 15.521Z" fill="url(#paint12_linear_10_424)"/>
  </g>
  <defs>
    <linearGradient id="paint0_linear_10_424" x1="29.7977" y1="28.0392" x2="29.8356" y2="20.6564" gradientUnits="userSpaceOnUse">
      <stop stop-color="#60E6AF"/>
      <stop offset="0.1" stop-color="#5BDEA8"/>
      <stop offset="0.2" stop-color="#56D7A1"/>
      <stop offset="0.3" stop-color="#50CF9A"/>
      <stop offset="0.4" stop-color="#4BC793"/>
      <stop offset="0.5" stop-color="#46C08C"/>
      <stop offset="0.6" stop-color="#41B884"/>
      <stop offset="0.7" stop-color="#3CB07D"/>
      <stop offset="0.8" stop-color="#36A876"/>
      <stop offset="0.9" stop-color="#31A16F"/>
      <stop offset="1" stop-color="#2C9968"/>
    </linearGradient>
    <linearGradient id="paint1_linear_10_424" x1="35.6191" y1="28.0683" x2="35.6869" y2="14.815" gradientUnits="userSpaceOnUse">
      <stop stop-color="#60E6AF"/>
      <stop offset="0.1" stop-color="#68E7A7"/>
      <stop offset="0.2" stop-color="#70E79F"/>
      <stop offset="0.3" stop-color="#77E897"/>
      <stop offset="0.4" stop-color="#7FE88F"/>
      <stop offset="0.5" stop-color="#87E988"/>
      <stop offset="0.6" stop-color="#8FEA80"/>
      <stop offset="0.7" stop-color="#97EA78"/>
      <stop offset="0.8" stop-color="#9EEB70"/>
      <stop offset="0.9" stop-color="#A6EB68"/>
      <stop offset="1" stop-color="#AEEC60"/>
    </linearGradient>
    <linearGradient id="paint2_linear_10_424" x1="29.2835" y1="1.52781" x2="29.2439" y2="9.23598" gradientUnits="userSpaceOnUse">
      <stop stop-color="#60E6AF"/>
      <stop offset="0.1" stop-color="#5BDEA8"/>
      <stop offset="0.2" stop-color="#56D7A1"/>
      <stop offset="0.3" stop-color="#50CF9A"/>
      <stop offset="0.4" stop-color="#4BC793"/>
      <stop offset="0.5" stop-color="#46C08C"/>
      <stop offset="0.6" stop-color="#41B884"/>
      <stop offset="0.7" stop-color="#3CB07D"/>
      <stop offset="0.8" stop-color="#36A876"/>
      <stop offset="0.9" stop-color="#31A16F"/>
      <stop offset="1" stop-color="#2C9968"/>
    </linearGradient>
    <linearGradient id="paint3_linear_10_424" x1="35.5636" y1="19.3009" x2="35.6549" y2="1.55957" gradientUnits="userSpaceOnUse">
      <stop stop-color="#60E6AF"/>
      <stop offset="0.1" stop-color="#68E7A7"/>
      <stop offset="0.2" stop-color="#70E79F"/>
      <stop offset="0.3" stop-color="#77E897"/>
      <stop offset="0.4" stop-color="#7FE88F"/>
      <stop offset="0.5" stop-color="#87E988"/>
      <stop offset="0.6" stop-color="#8FEA80"/>
      <stop offset="0.7" stop-color="#97EA78"/>
      <stop offset="0.8" stop-color="#9EEB70"/>
      <stop offset="0.9" stop-color="#A6EB68"/>
      <stop offset="1" stop-color="#AEEC60"/>
    </linearGradient>
    <linearGradient id="paint4_linear_10_424" x1="9.98961" y1="1.54548" x2="9.9517" y2="8.9283" gradientUnits="userSpaceOnUse">
      <stop stop-color="#60E6AF"/>
      <stop offset="0.1" stop-color="#5BDEA8"/>
      <stop offset="0.2" stop-color="#56D7A1"/>
      <stop offset="0.3" stop-color="#50CF9A"/>
      <stop offset="0.4" stop-color="#4BC793"/>
      <stop offset="0.5" stop-color="#46C08C"/>
      <stop offset="0.6" stop-color="#41B884"/>
      <stop offset="0.7" stop-color="#3CB07D"/>
      <stop offset="0.8" stop-color="#36A876"/>
      <stop offset="0.9" stop-color="#31A16F"/>
      <stop offset="1" stop-color="#2C9968"/>
    </linearGradient>
    <linearGradient id="paint5_linear_10_424" x1="4.10156" y1="14.7699" x2="4.16945" y2="1.51511" gradientUnits="userSpaceOnUse">
      <stop stop-color="#60E6AF"/>
      <stop offset="0.1" stop-color="#68E7A7"/>
      <stop offset="0.2" stop-color="#70E79F"/>
      <stop offset="0.3" stop-color="#77E897"/>
      <stop offset="0.4" stop-color="#7FE88F"/>
      <stop offset="0.5" stop-color="#87E988"/>
      <stop offset="0.6" stop-color="#8FEA80"/>
      <stop offset="0.7" stop-color="#97EA78"/>
      <stop offset="0.8" stop-color="#9EEB70"/>
      <stop offset="0.9" stop-color="#A6EB68"/>
      <stop offset="1" stop-color="#AEEC60"/>
    </linearGradient>
    <linearGradient id="paint6_linear_10_424" x1="10.5035" y1="28.0568" x2="10.5431" y2="20.3486" gradientUnits="userSpaceOnUse">
      <stop stop-color="#60E6AF"/>
      <stop offset="0.1" stop-color="#5BDEA8"/>
      <stop offset="0.2" stop-color="#56D7A1"/>
      <stop offset="0.3" stop-color="#50CF9A"/>
      <stop offset="0.4" stop-color="#4BC793"/>
      <stop offset="0.5" stop-color="#46C08C"/>
      <stop offset="0.6" stop-color="#41B884"/>
      <stop offset="0.7" stop-color="#3CB07D"/>
      <stop offset="0.8" stop-color="#36A876"/>
      <stop offset="0.9" stop-color="#31A16F"/>
      <stop offset="1" stop-color="#2C9968"/>
    </linearGradient>
    <linearGradient id="paint7_linear_10_424" x1="4.13421" y1="28.0237" x2="4.22548" y2="10.2842" gradientUnits="userSpaceOnUse">
      <stop stop-color="#60E6AF"/>
      <stop offset="0.1" stop-color="#68E7A7"/>
      <stop offset="0.2" stop-color="#70E79F"/>
      <stop offset="0.3" stop-color="#77E897"/>
      <stop offset="0.4" stop-color="#7FE88F"/>
      <stop offset="0.5" stop-color="#87E988"/>
      <stop offset="0.6" stop-color="#8FEA80"/>
      <stop offset="0.7" stop-color="#97EA78"/>
      <stop offset="0.8" stop-color="#9EEB70"/>
      <stop offset="0.9" stop-color="#A6EB68"/>
      <stop offset="1" stop-color="#AEEC60"/>
    </linearGradient>
    <linearGradient id="paint8_linear_10_424" x1="13.8662" y1="28.0739" x2="13.9155" y2="18.4712" gradientUnits="userSpaceOnUse">
      <stop stop-color="#60E6AF"/>
      <stop offset="0.1" stop-color="#5BDEA8"/>
      <stop offset="0.2" stop-color="#56D7A1"/>
      <stop offset="0.3" stop-color="#50CF9A"/>
      <stop offset="0.4" stop-color="#4BC793"/>
      <stop offset="0.5" stop-color="#46C08C"/>
      <stop offset="0.6" stop-color="#41B884"/>
      <stop offset="0.7" stop-color="#3CB07D"/>
      <stop offset="0.8" stop-color="#36A876"/>
      <stop offset="0.9" stop-color="#31A16F"/>
      <stop offset="1" stop-color="#2C9968"/>
    </linearGradient>
    <linearGradient id="paint9_linear_10_424" x1="19.9912" y1="15.5952" x2="20.0009" y2="13.7002" gradientUnits="userSpaceOnUse">
      <stop stop-color="#60E6AF"/>
      <stop offset="0.1" stop-color="#5BDEA8"/>
      <stop offset="0.2" stop-color="#56D7A1"/>
      <stop offset="0.3" stop-color="#50CF9A"/>
      <stop offset="0.4" stop-color="#4BC793"/>
      <stop offset="0.5" stop-color="#46C08C"/>
      <stop offset="0.6" stop-color="#41B884"/>
      <stop offset="0.7" stop-color="#3CB07D"/>
      <stop offset="0.8" stop-color="#36A876"/>
      <stop offset="0.9" stop-color="#31A16F"/>
      <stop offset="1" stop-color="#2C9968"/>
    </linearGradient>
    <linearGradient id="paint10_linear_10_424" x1="25.9756" y1="10.8236" x2="26.0235" y2="1.5105" gradientUnits="userSpaceOnUse">
      <stop stop-color="#60E6AF"/>
      <stop offset="0.1" stop-color="#5BDEA8"/>
      <stop offset="0.2" stop-color="#56D7A1"/>
      <stop offset="0.3" stop-color="#50CF9A"/>
      <stop offset="0.4" stop-color="#4BC793"/>
      <stop offset="0.5" stop-color="#46C08C"/>
      <stop offset="0.6" stop-color="#41B884"/>
      <stop offset="0.7" stop-color="#3CB07D"/>
      <stop offset="0.8" stop-color="#36A876"/>
      <stop offset="0.9" stop-color="#31A16F"/>
      <stop offset="1" stop-color="#2C9968"/>
    </linearGradient>
    <linearGradient id="paint11_linear_10_424" x1="34.0991" y1="12.3187" x2="5.70565" y2="12.174" gradientUnits="userSpaceOnUse">
      <stop stop-color="#60E6AF"/>
      <stop offset="0.1" stop-color="#68E7A7"/>
      <stop offset="0.2" stop-color="#70E79F"/>
      <stop offset="0.3" stop-color="#77E897"/>
      <stop offset="0.4" stop-color="#7FE88F"/>
      <stop offset="0.5" stop-color="#87E988"/>
      <stop offset="0.6" stop-color="#8FEA80"/>
      <stop offset="0.7" stop-color="#97EA78"/>
      <stop offset="0.8" stop-color="#9EEB70"/>
      <stop offset="0.9" stop-color="#A6EB68"/>
      <stop offset="1" stop-color="#AEEC60"/>
    </linearGradient>
    <linearGradient id="paint12_linear_10_424" x1="34.2378" y1="17.1218" x2="5.51603" y2="16.9754" gradientUnits="userSpaceOnUse">
      <stop stop-color="#60E6AF"/>
      <stop offset="0.1" stop-color="#68E7A7"/>
      <stop offset="0.2" stop-color="#70E79F"/>
      <stop offset="0.3" stop-color="#77E897"/>
      <stop offset="0.4" stop-color="#7FE88F"/>
      <stop offset="0.5" stop-color="#87E988"/>
      <stop offset="0.6" stop-color="#8FEA80"/>
      <stop offset="0.7" stop-color="#97EA78"/>
      <stop offset="0.8" stop-color="#9EEB70"/>
      <stop offset="0.9" stop-color="#A6EB68"/>
      <stop offset="1" stop-color="#AEEC60"/>
    </linearGradient>
    <clipPath id="clip0_10_424">
      <rect width="191" height="29" fill="white"/>
    </clipPath>
  </defs>
</svg>