<svg xmlns="http://www.w3.org/2000/svg" width="56" height="56" viewBox="0 0 56 56" fill="none">
  <path opacity="0.5" d="M9.3335 24.5001V6.41675H46.6668V24.5001C46.6668 31.6497 46.6668 35.2245 44.3237 37.4456C41.9805 39.6667 38.2093 39.6667 30.6668 39.6667H29.7502H26.2502H25.3335C17.791 39.6667 14.0198 39.6667 11.6766 37.4456C9.3335 35.2245 9.3335 31.6497 9.3335 24.5001Z" fill="#5E6DE2"/>
  <path d="M36.2374 21.0707C36.9209 20.3873 36.9209 19.2792 36.2374 18.5958C35.554 17.9124 34.446 17.9124 33.7626 18.5958L30.7458 21.6126C30.5823 21.776 30.4498 21.9085 30.3333 22.0212C30.2169 21.9085 30.0843 21.776 29.9209 21.6126L28.4971 20.1887C28.1588 19.8502 27.7931 19.4842 27.4427 19.2169C27.0322 18.9037 26.4448 18.5665 25.6667 18.5665C24.8886 18.5665 24.3012 18.9037 23.8906 19.2169C23.5402 19.4842 23.1744 19.8503 22.8361 20.1889L19.7626 23.2625C19.0791 23.9459 19.0791 25.0539 19.7626 25.7374C20.446 26.4208 21.554 26.4208 22.2374 25.7374L25.2542 22.7206C25.4177 22.5571 25.5502 22.4247 25.6667 22.3119C25.7831 22.4247 25.9157 22.5571 26.0791 22.7206L27.5028 24.1443C27.8411 24.4828 28.2069 24.8489 28.5573 25.1163C28.9678 25.4295 29.5552 25.7667 30.3333 25.7667C31.1114 25.7667 31.6988 25.4295 32.1094 25.1163C32.4598 24.8489 32.8256 24.4828 33.1639 24.1443L36.2374 21.0707Z" fill="#5E6DE2"/>
  <path d="M4.6665 2.91675C3.70001 2.91675 2.9165 3.70025 2.9165 4.66675C2.9165 5.63325 3.70001 6.41675 4.6665 6.41675H9.33317H46.6665H51.3332C52.2997 6.41675 53.0832 5.63325 53.0832 4.66675C53.0832 3.70025 52.2997 2.91675 51.3332 2.91675H4.6665Z" fill="#5E6DE2"/>
  <path d="M26.2505 39.6667V47.9185L22.5513 49.7682C21.6868 50.2004 21.3364 51.2516 21.7686 52.116C22.2009 52.9805 23.252 53.3309 24.1165 52.8987L28.0005 50.9566L31.8846 52.8987C32.7491 53.3309 33.8002 52.9805 34.2325 52.116C34.6647 51.2516 34.3143 50.2004 33.4498 49.7682L29.7505 47.9185V39.6667H26.2505Z" fill="#5E6DE2"/>
</svg>