<svg xmlns="http://www.w3.org/2000/svg" width="56" height="56" viewBox="0 0 56 56" fill="none">
  <g opacity="0.5">
    <path fill-rule="evenodd" clip-rule="evenodd" d="M32.667 51.3334H23.3337C14.5341 51.3334 10.1343 51.3334 7.40066 48.5997C4.66699 45.8661 4.66699 41.4663 4.66699 32.6667V23.3334C4.66699 14.5339 4.66699 10.1341 7.40066 7.40042C10.1343 4.66675 14.5573 4.66675 23.4032 4.66675C24.8172 4.66675 25.9503 4.66675 26.9037 4.70562C26.8723 4.89213 26.8559 5.08238 26.8552 5.27473L26.8336 11.8883C26.8334 14.4483 26.8333 16.7106 27.0784 18.5341C27.3442 20.5107 27.9544 22.487 29.5673 24.1C31.1803 25.713 33.1566 26.3231 35.1332 26.5889C36.9568 26.8341 39.2191 26.8339 41.779 26.8337L42.0003 26.8337H51.2343C51.3337 28.0803 51.3337 29.6103 51.3337 31.6468V32.6667C51.3337 41.4663 51.3337 45.8661 48.6 48.5997C45.8663 51.3334 41.4665 51.3334 32.667 51.3334Z" fill="#5E6DE2"/>
  </g>
  <path d="M14 32.0833C13.0335 32.0833 12.25 32.8668 12.25 33.8333C12.25 34.7998 13.0335 35.5833 14 35.5833H32.6667C33.6332 35.5833 34.4167 34.7998 34.4167 33.8333C34.4167 32.8668 33.6332 32.0833 32.6667 32.0833H14Z" fill="#5E6DE2"/>
  <path d="M14 40.2499C13.0335 40.2499 12.25 41.0334 12.25 41.9999C12.25 42.9664 13.0335 43.7499 14 43.7499H26.8333C27.7998 43.7499 28.5833 42.9664 28.5833 41.9999C28.5833 41.0334 27.7998 40.2499 26.8333 40.2499H14Z" fill="#5E6DE2"/>
  <path d="M26.8546 5.27364L26.833 11.8872C26.8328 14.4471 26.8326 16.7095 27.0778 18.533C27.3436 20.5096 27.9537 22.4859 29.5667 24.0989C31.1797 25.7119 33.156 26.322 35.1326 26.5878C36.9561 26.833 39.2184 26.8328 41.7783 26.8326L51.2337 26.8326C51.2626 27.1955 51.2831 27.5825 51.2976 27.999H51.333C51.333 27.3748 51.333 27.0628 51.3098 26.6953C51.1779 24.608 50.3103 22.2163 49.0732 20.53C48.8554 20.2331 48.7065 20.0549 48.4087 19.6985C46.5594 17.4851 44.1254 14.7279 41.9997 12.8323C40.1077 11.1451 37.5165 9.29926 35.2567 7.78991C33.3151 6.49315 32.3444 5.84478 31.0133 5.36288C30.6604 5.23511 30.1949 5.094 29.8305 5.00429C28.9345 4.78373 28.0622 4.70701 26.833 4.68042L26.8546 5.27364Z" fill="#5E6DE2"/>
</svg>