<svg xmlns="http://www.w3.org/2000/svg" width="56" height="56" viewBox="0 0 56 56" fill="none">
  <path opacity="0.5" d="M41.125 48.0473C42.622 46.777 44.878 46.777 46.375 48.0473C47.3921 48.9104 49 48.2211 49 46.922V9.07804C49 7.77893 47.3921 7.08965 46.375 7.95274C44.878 9.22305 42.622 9.22305 41.125 7.95274C39.628 6.68242 37.372 6.68242 35.875 7.95274C34.378 9.22305 32.122 9.22305 30.625 7.95274C29.128 6.68242 26.872 6.68242 25.375 7.95274C23.878 9.22305 21.622 9.22305 20.125 7.95274C18.628 6.68242 16.372 6.68242 14.875 7.95274C13.378 9.22305 11.122 9.22305 9.625 7.95274C8.60788 7.08965 7 7.77893 7 9.07804V46.922C7 48.2211 8.60788 48.9104 9.625 48.0473C11.122 46.777 13.378 46.777 14.875 48.0473C16.372 49.3176 18.628 49.3176 20.125 48.0473C21.622 46.777 23.878 46.777 25.375 48.0473C26.872 49.3176 29.128 49.3176 30.625 48.0473C32.122 46.777 34.378 46.777 35.875 48.0473C37.372 49.3176 39.628 49.3176 41.125 48.0473Z" fill="#5E6DE2"/>
  <path d="M15.75 36.1666C15.75 35.2001 16.5335 34.4166 17.5 34.4166H38.5C39.4665 34.4166 40.25 35.2001 40.25 36.1666C40.25 37.1331 39.4665 37.9166 38.5 37.9166H17.5C16.5335 37.9166 15.75 37.1331 15.75 36.1666Z" fill="#5E6DE2"/>
  <path d="M15.75 27.9999C15.75 27.0334 16.5335 26.2499 17.5 26.2499H38.5C39.4665 26.2499 40.25 27.0334 40.25 27.9999C40.25 28.9664 39.4665 29.7499 38.5 29.7499H17.5C16.5335 29.7499 15.75 28.9664 15.75 27.9999Z" fill="#5E6DE2"/>
  <path d="M15.75 19.8333C15.75 18.8668 16.5335 18.0833 17.5 18.0833H38.5C39.4665 18.0833 40.25 18.8668 40.25 19.8333C40.25 20.7998 39.4665 21.5833 38.5 21.5833H17.5C16.5335 21.5833 15.75 20.7998 15.75 19.8333Z" fill="#5E6DE2"/>
</svg>